<?xml version="1.0" encoding="UTF-8" standalone="no"?>
<svg width="139px" height="27px" viewBox="0 0 139 27" version="1.1" xmlns="http://www.w3.org/2000/svg" xmlns:xlink="http://www.w3.org/1999/xlink" xmlns:sketch="http://www.bohemiancoding.com/sketch/ns">
    <title>Segment.io</title>
    <defs></defs>
    <g id="Page-1" stroke="none" stroke-width="1" fill="none" fill-rule="evenodd" sketch:type="MSPage">
        <path d="M13.527,14.141 C13.527,12.872 13.122,11.765 12.339,10.874 C11.61,10.01 10.935,9.578 8.802,8.525 C7.236,7.742 6.588,7.364 6.021,6.905 C5.454,6.419 5.13,5.744 5.13,5.042 C5.13,3.638 6.21,2.72 7.857,2.72 C8.64,2.72 9.423,2.909 10.017,3.287 C10.557,3.611 10.854,3.935 11.448,4.745 L11.88,4.718 L12.096,3.881 L12.501,2.531 L12.879,1.505 C11.421,0.938 10.8,0.749 9.666,0.641 C9.261,0.587 8.829,0.56 8.397,0.56 C4.158,0.56 1.296,2.99 1.296,6.554 C1.296,7.904 1.782,9.119 2.646,9.983 C3.402,10.712 4.104,11.144 6.21,12.197 C7.83,13.061 8.424,13.439 8.937,13.952 C9.396,14.411 9.666,15.086 9.666,15.761 C9.666,17.354 8.343,18.434 6.426,18.434 C5.481,18.434 4.59,18.137 3.807,17.57 C3.267,17.165 2.997,16.841 2.43,16.004 L1.944,16.085 L1.728,17.219 L1.404,18.569 L1.08,19.622 C2.484,20.189 3.051,20.324 4.239,20.486 C4.779,20.54 5.319,20.567 5.832,20.567 C10.314,20.567 13.527,17.867 13.527,14.141 C13.527,14.141 13.527,17.867 13.527,14.141 Z M27.459,11.603 C27.459,8.417 25.299,6.338 21.978,6.338 C18.117,6.338 15.444,9.254 15.444,13.466 C15.444,17.705 18.171,20.486 22.302,20.486 C23.22,20.486 24.327,20.351 25.272,20.135 C25.515,20.081 25.866,19.973 26.298,19.838 L26.703,18.65 L27.216,17.381 L26.838,17.165 C26.109,17.705 25.758,17.894 25.11,18.002 C24.732,18.083 24.354,18.11 23.949,18.11 C21.06,18.11 19.386,16.301 19.305,13.142 L20.574,13.088 L23.058,13.061 L25.839,13.088 L27.108,13.088 L27.405,12.737 C27.432,12.251 27.459,11.873 27.459,11.603 C27.459,11.603 27.459,11.873 27.459,11.603 Z M23.841,10.172 C23.841,11.009 23.409,11.36 22.302,11.387 L20.52,11.441 L19.278,11.441 C19.359,10.064 19.44,9.632 19.818,9.011 C20.25,8.282 20.898,7.931 21.762,7.931 C22.95,7.931 23.841,8.903 23.841,10.172 C23.841,10.172 23.841,8.903 23.841,10.172 Z M43.092,7.04 L42.903,6.797 C41.877,6.905 41.445,6.932 40.689,6.932 L38.232,6.959 C37.287,6.608 36.612,6.5 35.397,6.5 C31.806,6.5 29.619,8.147 29.619,10.847 C29.619,12.494 30.348,13.682 31.941,14.519 L30.591,15.626 C29.808,16.274 29.457,16.841 29.457,17.489 C29.457,18.245 30.024,18.974 30.969,19.352 L31.509,19.568 L30.78,19.946 C29.835,20.432 29.565,20.621 29.187,21.026 C28.782,21.485 28.566,22.052 28.566,22.727 C28.566,24.995 30.996,26.534 34.587,26.534 C39.123,26.534 42.147,24.32 42.147,21.026 C42.147,18.569 40.608,17.327 37.53,17.327 L36.153,17.327 C33.534,17.327 32.562,16.976 32.562,16.031 C32.562,15.653 32.724,15.383 33.264,14.897 C33.912,15.032 34.155,15.059 34.83,15.059 C38.502,15.059 40.689,13.358 40.689,10.55 C40.689,9.713 40.581,9.362 40.122,8.633 L40.392,8.633 C40.473,8.606 40.581,8.606 40.662,8.606 C41.094,8.606 41.418,8.633 42.228,8.687 L42.633,7.85 L43.092,7.04 Z M37.152,11.09 C37.152,12.71 36.477,13.574 35.208,13.574 C33.885,13.574 33.156,12.44 33.156,10.469 C33.156,8.876 33.723,8.093 34.938,7.985 C34.992,7.985 35.046,7.958 35.127,7.958 C36.396,7.958 37.152,9.092 37.152,11.09 C37.152,11.09 37.152,9.092 37.152,11.09 Z M38.961,22.241 C38.961,23.753 37.314,24.779 34.938,24.779 C32.67,24.779 31.239,23.861 31.239,22.376 C31.239,21.647 31.644,21.053 32.427,20.621 C32.94,20.324 33.237,20.27 34.425,20.27 C36.72,20.27 37.449,20.351 38.124,20.756 C38.664,21.053 38.961,21.62 38.961,22.241 C38.961,22.241 38.961,21.62 38.961,22.241 Z M66.366,20 C65.988,18.839 65.799,17.354 65.826,14.897 L65.853,11.522 C65.88,9.578 65.718,8.876 65.151,8.066 C64.449,7.121 63.315,6.608 61.911,6.608 C60.588,6.608 59.481,7.094 58.212,8.174 L57.078,9.146 C56.484,7.445 55.242,6.608 53.379,6.608 C52.029,6.608 50.949,7.094 49.653,8.174 L48.573,9.092 L48.627,6.797 L47.331,6.878 L45.171,6.932 L44.091,6.986 L43.551,8.201 L43.767,8.201 C44.415,8.201 44.82,8.471 44.955,9.038 C45.09,9.578 45.171,10.523 45.171,11.846 L45.117,14.87 C45.117,16.301 45.036,18.137 44.955,18.785 C44.928,19.055 44.874,19.46 44.793,20 L45.927,19.946 L48.06,19.946 L49.248,20 C48.87,18.839 48.708,17.354 48.708,14.897 L48.708,12.98 C48.708,11.306 48.87,10.766 49.518,10.091 C50.085,9.524 50.787,9.2 51.57,9.2 C52.488,9.2 53.244,9.713 53.514,10.523 C53.649,10.955 53.703,11.495 53.703,12.467 L53.703,12.602 L53.676,14.87 C53.649,16.382 53.568,18.137 53.487,18.785 C53.487,19.055 53.433,19.46 53.352,20 L54.486,19.946 L56.619,19.946 L57.807,20 C57.429,18.839 57.267,17.354 57.267,14.897 L57.267,12.98 C57.267,11.279 57.429,10.766 58.077,10.091 C58.644,9.524 59.373,9.2 60.129,9.2 C61.074,9.2 61.83,9.713 62.073,10.523 C62.208,10.982 62.262,11.468 62.262,12.44 L62.262,12.602 L62.262,14.87 C62.262,16.382 62.181,18.137 62.1,18.785 C62.073,19.055 61.992,19.46 61.911,20 L63.045,19.946 L65.178,19.946 L66.366,20 Z M80.811,11.603 C80.811,8.417 78.651,6.338 75.33,6.338 C71.469,6.338 68.796,9.254 68.796,13.466 C68.796,17.705 71.523,20.486 75.654,20.486 C76.572,20.486 77.679,20.351 78.624,20.135 C78.867,20.081 79.218,19.973 79.65,19.838 L80.055,18.65 L80.568,17.381 L80.19,17.165 C79.461,17.705 79.11,17.894 78.462,18.002 C78.084,18.083 77.706,18.11 77.301,18.11 C74.412,18.11 72.738,16.301 72.657,13.142 L73.926,13.088 L76.41,13.061 L79.191,13.088 L80.46,13.088 L80.757,12.737 C80.784,12.251 80.811,11.873 80.811,11.603 C80.811,11.603 80.811,11.873 80.811,11.603 Z M77.193,10.172 C77.193,11.009 76.761,11.36 75.654,11.387 L73.872,11.441 L72.63,11.441 C72.711,10.064 72.792,9.632 73.17,9.011 C73.602,8.282 74.25,7.931 75.114,7.931 C76.302,7.931 77.193,8.903 77.193,10.172 C77.193,10.172 77.193,8.903 77.193,10.172 Z M96.822,20 C96.444,18.839 96.255,17.354 96.282,14.897 L96.309,11.522 C96.336,9.605 96.174,8.876 95.58,8.066 C94.851,7.121 93.717,6.608 92.259,6.608 C90.855,6.608 89.829,7.067 88.452,8.174 L87.345,9.065 L87.399,6.797 L86.13,6.878 L83.97,6.932 L82.89,6.986 L82.35,8.201 L82.566,8.201 C83.214,8.201 83.592,8.471 83.727,9.038 C83.862,9.578 83.97,10.523 83.97,11.846 L83.916,14.87 C83.916,16.301 83.835,18.137 83.754,18.785 C83.727,19.055 83.673,19.46 83.565,20 L84.699,19.946 L86.832,19.946 L88.02,20 C87.642,18.839 87.48,17.327 87.48,14.897 L87.48,12.98 C87.48,11.306 87.642,10.766 88.317,10.091 C88.884,9.524 89.64,9.2 90.423,9.2 C91.422,9.2 92.232,9.713 92.502,10.523 C92.664,10.982 92.718,11.495 92.718,12.602 L92.718,14.87 C92.718,15.329 92.691,15.977 92.664,16.841 C92.637,17.705 92.61,18.353 92.556,18.785 C92.529,19.055 92.448,19.46 92.367,20 L93.501,19.946 L95.634,19.946 L96.822,20 Z M108.432,7.094 L108.243,6.824 C107.46,6.986 107.244,7.013 106.353,7.013 L106.191,7.013 L104.328,6.986 C104.382,4.934 104.409,4.583 104.598,3.314 L104.301,3.017 L103.383,3.53 L101.709,4.286 L100.683,4.637 C100.764,5.852 100.791,6.095 100.791,6.959 L99.387,6.986 L98.847,8.336 L99.306,8.336 C99.954,8.336 100.332,8.606 100.467,9.173 C100.602,9.713 100.71,10.658 100.683,12.089 L100.656,14.708 L100.656,15.95 C100.656,19.109 101.817,20.459 104.517,20.459 C105.381,20.459 106.164,20.324 107.73,19.892 L108,18.758 L108.27,17.894 L107.946,17.705 C107.271,18.056 106.812,18.191 106.218,18.191 C105.3,18.191 104.625,17.678 104.409,16.787 C104.274,16.247 104.247,15.842 104.247,14.465 L104.247,14.276 L104.247,11.414 L104.328,8.93 L105.408,8.93 C106.245,8.93 106.623,8.957 107.676,9.038 L108.027,8.039 L108.432,7.094 Z M113.616,18.11 L113.616,17.894 C113.616,16.517 113.346,16.193 112.131,16.193 C111.159,16.193 110.538,16.328 110.268,16.598 C109.998,16.868 109.863,17.516 109.863,18.596 C109.863,19.946 110.16,20.297 111.348,20.297 C112.428,20.297 112.995,20.162 113.265,19.838 C113.508,19.541 113.616,19.19 113.616,18.11 C113.616,18.11 113.616,19.19 113.616,18.11 Z M121.662,2.531 C121.662,1.235 121.365,0.938 119.988,0.938 C118.935,0.938 118.233,1.073 117.936,1.316 C117.612,1.559 117.477,2.153 117.477,3.179 C117.477,4.421 117.801,4.718 119.151,4.718 C120.339,4.718 120.96,4.61 121.257,4.313 C121.527,4.043 121.608,3.692 121.635,2.72 C121.662,2.639 121.662,2.585 121.662,2.531 C121.662,2.531 121.662,2.585 121.662,2.531 Z M121.824,20 C121.446,18.839 121.284,17.354 121.284,14.897 L121.284,11.306 C121.284,10.118 121.365,9.146 121.527,6.77 L120.231,6.851 L117.747,6.932 L116.667,6.986 L116.127,8.201 L116.343,8.201 C116.991,8.201 117.396,8.471 117.531,9.038 C117.666,9.578 117.747,10.523 117.747,11.846 L117.693,14.87 C117.693,16.301 117.612,18.137 117.531,18.785 C117.504,19.055 117.45,19.46 117.369,20 L118.503,19.946 L120.636,19.946 L121.824,20 Z M138.321,13.007 C138.321,8.768 135.918,6.365 131.625,6.365 L131.328,6.365 C126.954,6.365 124.227,9.281 124.227,13.682 C124.227,17.948 126.711,20.432 130.95,20.432 C135.432,20.432 138.321,17.543 138.321,13.007 C138.321,13.007 138.321,17.543 138.321,13.007 Z M134.379,13.763 C134.379,17.165 133.326,18.893 131.247,18.893 C129.249,18.893 128.142,16.787 128.142,13.007 C128.142,9.74 129.06,8.147 131.004,7.931 C131.112,7.904 131.22,7.904 131.301,7.904 C133.272,7.904 134.379,10.01 134.379,13.763 C134.379,13.763 134.379,10.01 134.379,13.763 Z M134.379,13.763" id="Segment.io" fill="#FFFFFF" sketch:type="MSShapeGroup"></path>
    </g>
</svg>