<?xml version="1.0" encoding="utf-8"?>
<!-- Generator: Adobe Illustrator 16.0.0, SVG Export Plug-In . SVG Version: 6.00 Build 0)  -->
<!DOCTYPE svg PUBLIC "-//W3C//DTD SVG 1.1//EN" "http://www.w3.org/Graphics/SVG/1.1/DTD/svg11.dtd">
<svg version="1.1" id="Layer_1" xmlns="http://www.w3.org/2000/svg" xmlns:xlink="http://www.w3.org/1999/xlink" x="0px" y="0px"
	 width="64px" height="64px" viewBox="0 0 64 64" enable-background="new 0 0 64 64" xml:space="preserve">
<g>
	<defs>
		<rect id="SVGID_1_" width="64" height="64"/>
	</defs>
	<clipPath id="SVGID_2_">
		<use xlink:href="#SVGID_1_"  overflow="visible"/>
	</clipPath>
	<path clip-path="url(#SVGID_2_)" fill="#FFFFFF" d="M36.564,26.152l-7.606,14.012l-9.733-13.78
		c-0.469-0.664-1.382-0.833-2.057-0.382l-9,6c-0.69,0.46-0.876,1.391-0.416,2.08c0.459,0.689,1.39,0.876,2.08,0.416l7.785-5.191
		L27.9,43.865c0.282,0.399,0.74,0.635,1.225,0.635c0.029,0,0.059-0.001,0.088-0.003c0.518-0.029,0.983-0.326,1.23-0.781
		l8.486-15.632C37.967,27.679,37.147,27.003,36.564,26.152"/>
	<path clip-path="url(#SVGID_2_)" fill="#FFFFFF" d="M41,19.75c-1.861,0-3.375,1.514-3.375,3.375S39.139,26.5,41,26.5
		s3.375-1.514,3.375-3.375S42.861,19.75,41,19.75"/>
	<path clip-path="url(#SVGID_2_)" fill="#FFFFFF" d="M44.051,27.542l8.761,11.373c0.507,0.657,1.448,0.778,2.104,0.273
		c0.656-0.506,0.779-1.447,0.273-2.104l-9.21-11.955C45.582,26.11,44.908,26.947,44.051,27.542"/>
	<path clip-path="url(#SVGID_2_)" fill="#4F5D73" d="M32,0c-17.673,0-32,14.326-32,32c0,17.673,14.327,32,32,32
		c17.674,0,32-14.327,32-32C63.999,14.327,49.674,0,32,0 M30.443,43.716c-0.248,0.455-0.713,0.751-1.23,0.781
		c-0.03,0.002-0.059,0.004-0.089,0.004c-0.485,0-0.942-0.236-1.225-0.636L17.618,29.308l-7.785,5.19
		c-0.691,0.461-1.622,0.273-2.081-0.416s-0.273-1.62,0.416-2.08l9-6c0.676-0.45,1.588-0.281,2.058,0.383l9.732,13.78l7.607-14.012
		c0.583,0.851,1.402,1.527,2.365,1.931L30.443,43.716z M40.999,26.5c-1.859,0-3.375-1.514-3.375-3.375
		c0-1.862,1.516-3.375,3.375-3.375c1.861,0,3.375,1.513,3.375,3.375C44.374,24.986,42.86,26.5,40.999,26.5 M54.915,39.188
		c-0.655,0.505-1.597,0.384-2.104-0.273l-8.761-11.374c0.857-0.594,1.531-1.431,1.928-2.412l9.21,11.956
		C55.693,37.741,55.571,38.683,54.915,39.188"/>
</g>
</svg>
