<?xml version="1.0" encoding="utf-8"?>
<!-- Generator: Adobe Illustrator 16.0.0, SVG Export Plug-In . SVG Version: 6.00 Build 0)  -->
<!DOCTYPE svg PUBLIC "-//W3C//DTD SVG 1.1//EN" "http://www.w3.org/Graphics/SVG/1.1/DTD/svg11.dtd">
<svg version="1.1" id="Layer_1" xmlns="http://www.w3.org/2000/svg" xmlns:xlink="http://www.w3.org/1999/xlink" x="0px" y="0px"
	 width="64px" height="64px" viewBox="0 0 64 64" enable-background="new 0 0 64 64" xml:space="preserve">
<g>
	<defs>
		<rect id="SVGID_1_" width="64" height="64"/>
	</defs>
	<clipPath id="SVGID_2_">
		<use xlink:href="#SVGID_1_"  overflow="visible"/>
	</clipPath>
	<path clip-path="url(#SVGID_2_)" fill="#FFFFFF" d="M40,10H24c-2.209,0-4,1.791-4,4v32c0,2.209,1.791,4,4,4h16c2.209,0,4-1.791,4-4
		V14C44,11.791,42.209,10,40,10 M32,48c-1.105,0-2-0.895-2-2s0.895-2,2-2c1.105,0,2,0.895,2,2S33.105,48,32,48 M41,42H23V14
		c0-0.551,0.449-1,1-1h16c0.551,0,1,0.449,1,1V42z"/>
	<path clip-path="url(#SVGID_2_)" fill="#4F5D73" d="M32,0C14.327,0,0,14.327,0,32s14.327,32,32,32s32-14.327,32-32S49.673,0,32,0
		 M44,46c0,2.209-1.791,4-4,4H24c-2.209,0-4-1.791-4-4V14c0-2.209,1.791-4,4-4h16c2.209,0,4,1.791,4,4V46z"/>
	<path clip-path="url(#SVGID_2_)" fill="#4F5D73" d="M40,13H24c-0.551,0-1,0.449-1,1v28h18V14C41,13.449,40.551,13,40,13"/>
	<path clip-path="url(#SVGID_2_)" fill="#4F5D73" d="M32,44c-1.105,0-2,0.895-2,2s0.895,2,2,2c1.105,0,2-0.895,2-2S33.105,44,32,44"
		/>
</g>
</svg>
