<?xml version="1.0" encoding="utf-8"?>
<!-- Generator: Adobe Illustrator 16.0.0, SVG Export Plug-In . SVG Version: 6.00 Build 0)  -->
<!DOCTYPE svg PUBLIC "-//W3C//DTD SVG 1.1//EN" "http://www.w3.org/Graphics/SVG/1.1/DTD/svg11.dtd">
<svg version="1.1" id="Layer_1" xmlns="http://www.w3.org/2000/svg" xmlns:xlink="http://www.w3.org/1999/xlink" x="0px" y="0px"
	 width="64px" height="64px" viewBox="0 0 64 64" enable-background="new 0 0 64 64" xml:space="preserve">
<g>
	<defs>
		<rect id="SVGID_1_" width="64" height="64"/>
	</defs>
	<clipPath id="SVGID_2_">
		<use xlink:href="#SVGID_1_"  overflow="visible"/>
	</clipPath>
	<path clip-path="url(#SVGID_2_)" fill="#FFFFFF" d="M37,12H27c-1.657,0-3,1.343-3,3v5h16v-5C40,13.343,38.657,12,37,12"/>
	<polygon clip-path="url(#SVGID_2_)" fill="#FFFFFF" points="28,22 24,22 24,44 29.333,52 32,56 34.667,52 40,44 40,22 36,22 	"/>
	<path clip-path="url(#SVGID_2_)" fill="#4F5D73" d="M32,0C14.327,0,0,14.327,0,32s14.327,32,32,32s32-14.327,32-32S49.673,0,32,0
		 M40,44l-5.333,8L32,56l-2.667-4L24,44V22h4h8h4V44z M40,20H24v-5c0-1.657,1.343-3,3-3h10c1.657,0,3,1.343,3,3V20z"/>
</g>
</svg>
