<?xml version="1.0" encoding="utf-8"?>
<!-- Generator: Adobe Illustrator 16.0.0, SVG Export Plug-In . SVG Version: 6.00 Build 0)  -->
<!DOCTYPE svg PUBLIC "-//W3C//DTD SVG 1.1//EN" "http://www.w3.org/Graphics/SVG/1.1/DTD/svg11.dtd">
<svg version="1.1" id="Layer_1" xmlns="http://www.w3.org/2000/svg" xmlns:xlink="http://www.w3.org/1999/xlink" x="0px" y="0px"
	 width="64px" height="64px" viewBox="0 0 64 64" enable-background="new 0 0 64 64" xml:space="preserve">
<g>
	<defs>
		<rect id="SVGID_1_" width="64" height="64"/>
	</defs>
	<clipPath id="SVGID_2_">
		<use xlink:href="#SVGID_1_"  overflow="visible"/>
	</clipPath>
	<g clip-path="url(#SVGID_2_)">
		<defs>
			<rect id="SVGID_3_" width="64" height="64"/>
		</defs>
		<clipPath id="SVGID_4_">
			<use xlink:href="#SVGID_3_"  overflow="visible"/>
		</clipPath>
		<path clip-path="url(#SVGID_4_)" fill="#4F5D73" d="M64,32c0,17.673-14.327,32-32,32S0,49.673,0,32S14.327,0,32,0S64,14.327,64,32
			"/>
		<g opacity="0.2" clip-path="url(#SVGID_4_)">
			<g>
				<defs>
					<rect id="SVGID_5_" x="25.807" y="33.062" width="16.101" height="20.634"/>
				</defs>
				<clipPath id="SVGID_6_">
					<use xlink:href="#SVGID_5_"  overflow="visible"/>
				</clipPath>
				<path clip-path="url(#SVGID_6_)" fill="#231F20" d="M32.097,39.683c-1.557,1.556-6.087,12.54-6.087,12.54
					c-0.664,1.209,0.33,2.086,2.593,0.937l8.132-4.435c4.381-2.436,5.228-3.071,5.17-8.029l-0.815-5.853
					c-0.278-2.006-1.78-2.372-3.336-0.817L32.097,39.683z"/>
			</g>
		</g>
		<g opacity="0.2" clip-path="url(#SVGID_4_)">
			<g>
				<defs>
					<rect id="SVGID_7_" x="13.059" y="24.847" width="20.634" height="16.101"/>
				</defs>
				<clipPath id="SVGID_8_">
					<use xlink:href="#SVGID_7_"  overflow="visible"/>
				</clipPath>
				<path clip-path="url(#SVGID_8_)" fill="#231F20" d="M27.072,34.658c-1.556,1.556-12.54,6.087-12.54,6.087
					c-1.209,0.665-2.086-0.33-0.937-2.593l4.435-8.132c2.435-4.38,3.071-5.228,8.029-5.17l5.853,0.815
					c2.005,0.279,2.372,1.781,0.816,3.336L27.072,34.658z"/>
			</g>
		</g>
		<path clip-path="url(#SVGID_4_)" fill="#C75C5C" d="M32.097,37.683c-1.557,1.556-6.087,12.54-6.087,12.54
			c-0.664,1.209,0.33,2.086,2.593,0.937l8.132-4.435c4.381-2.436,5.228-3.071,5.17-8.029l-0.815-5.853
			c-0.278-2.005-1.78-2.373-3.336-0.817L32.097,37.683z"/>
		<path clip-path="url(#SVGID_4_)" fill="#C75C5C" d="M27.072,32.658c-1.556,1.556-12.54,6.087-12.54,6.087
			c-1.209,0.665-2.086-0.33-0.937-2.593l4.435-8.132c2.435-4.38,3.071-5.228,8.029-5.17l5.853,0.815
			c2.005,0.279,2.372,1.781,0.816,3.336L27.072,32.658z"/>
		<g opacity="0.2" clip-path="url(#SVGID_4_)">
			<g>
				<defs>
					<rect id="SVGID_9_" x="13.059" y="35.797" width="17.748" height="17.751"/>
				</defs>
				<clipPath id="SVGID_10_">
					<use xlink:href="#SVGID_9_"  overflow="visible"/>
				</clipPath>
				<path clip-path="url(#SVGID_10_)" fill="#231F20" d="M21.247,39.545c5.074-5.074,9.337-3.526,9.337-3.526
					s1.549,4.263-3.525,9.338c-5.075,5.074-13.291,8.759-13.931,8.119C12.506,52.855,16.172,44.619,21.247,39.545"/>
			</g>
		</g>
		<path clip-path="url(#SVGID_4_)" fill="#E0995E" d="M21.247,37.545c5.074-5.074,9.337-3.526,9.337-3.526s1.549,4.263-3.525,9.338
			c-5.075,5.074-13.291,8.759-13.931,8.119C12.506,50.855,16.172,42.619,21.247,37.545"/>
		<path clip-path="url(#SVGID_4_)" fill="#F5CF87" d="M25.489,33.302c5.074-5.074,9.337-3.526,9.337-3.526s1.549,4.263-3.525,9.338
			c-5.075,5.074-13.291,8.759-13.932,8.119C16.749,46.613,20.415,38.376,25.489,33.302"/>
		<g opacity="0.2" clip-path="url(#SVGID_4_)">
			<g>
				<defs>
					<rect id="SVGID_11_" x="23.584" y="15.233" width="27.765" height="27.785"/>
				</defs>
				<clipPath id="SVGID_12_">
					<use xlink:href="#SVGID_11_"  overflow="visible"/>
				</clipPath>
				<path clip-path="url(#SVGID_12_)" fill="#231F20" d="M43.634,37.078c-7.81,7.81-19.783,5.673-19.783,5.673
					s-2.137-11.972,5.674-19.782c7.81-7.811,19.643-8.642,21.196-7.088C52.229,17.388,51.444,29.268,43.634,37.078"/>
			</g>
		</g>
		<path clip-path="url(#SVGID_4_)" fill="#E0E0D1" d="M43.634,35.078c-7.81,7.81-19.783,5.673-19.783,5.673
			s-2.137-11.972,5.674-19.782c7.81-7.811,19.643-8.642,21.196-7.088C52.229,15.388,51.444,27.268,43.634,35.078"/>
		<g opacity="0.2" clip-path="url(#SVGID_4_)">
			<g>
				<defs>
					<rect id="SVGID_13_" x="18.562" y="31.805" width="16.236" height="16.236"/>
				</defs>
				<clipPath id="SVGID_14_">
					<use xlink:href="#SVGID_13_"  overflow="visible"/>
				</clipPath>
				<path clip-path="url(#SVGID_14_)" fill="#231F20" d="M21.023,46.994c-0.781,0.781-1.34,1.488-2.121,0.707
					c-0.781-0.781-0.074-1.34,0.707-2.121l9.899-12.729c0.781-0.78,4.169-1.488,4.95-0.707c0.781,0.781,0.074,4.169-0.707,4.95
					L21.023,46.994z"/>
			</g>
		</g>
		<path clip-path="url(#SVGID_4_)" fill="#C75C5C" d="M21.023,44.994c-0.781,0.781-1.34,1.488-2.121,0.707
			c-0.781-0.781-0.074-1.34,0.707-2.121l9.899-12.728c0.781-0.781,4.169-1.488,4.95-0.707c0.781,0.781,0.074,4.168-0.707,4.95
			L21.023,44.994z"/>
		<g opacity="0.2" clip-path="url(#SVGID_4_)">
			<g>
				<defs>
					<rect id="SVGID_15_" x="35.604" y="23.15" width="8" height="8"/>
				</defs>
				<clipPath id="SVGID_16_">
					<use xlink:href="#SVGID_15_"  overflow="visible"/>
				</clipPath>
				<path clip-path="url(#SVGID_16_)" fill="#231F20" d="M42.433,29.979c-1.562,1.562-4.095,1.562-5.657,0
					c-1.562-1.562-1.562-4.095,0-5.657c1.562-1.562,4.096-1.562,5.657,0C43.995,25.883,43.995,28.417,42.433,29.979"/>
			</g>
		</g>
		<g opacity="0.2" clip-path="url(#SVGID_4_)">
			<g>
				<defs>
					<rect id="SVGID_17_" x="43.262" y="19.493" width="4" height="4"/>
				</defs>
				<clipPath id="SVGID_18_">
					<use xlink:href="#SVGID_17_"  overflow="visible"/>
				</clipPath>
				<path clip-path="url(#SVGID_18_)" fill="#231F20" d="M46.676,22.907c-0.781,0.781-2.047,0.781-2.828,0
					c-0.781-0.781-0.781-2.047,0-2.828c0.781-0.781,2.047-0.781,2.828,0C47.456,20.86,47.456,22.126,46.676,22.907"/>
			</g>
		</g>
		<path clip-path="url(#SVGID_4_)" fill="#4F5D73" d="M42.433,27.979c-1.562,1.562-4.095,1.562-5.657,0
			c-1.562-1.562-1.562-4.095,0-5.657c1.562-1.562,4.096-1.562,5.657,0C43.995,23.883,43.995,26.417,42.433,27.979"/>
		<path clip-path="url(#SVGID_4_)" fill="#4F5D73" d="M46.676,20.907c-0.781,0.781-2.047,0.781-2.828,0
			c-0.781-0.781-0.781-2.047,0-2.828c0.781-0.781,2.047-0.781,2.828,0C47.456,18.86,47.456,20.126,46.676,20.907"/>
	</g>
</g>
</svg>
