<?xml version="1.0" encoding="utf-8"?>
<!-- Generator: Adobe Illustrator 16.0.0, SVG Export Plug-In . SVG Version: 6.00 Build 0)  -->
<!DOCTYPE svg PUBLIC "-//W3C//DTD SVG 1.1//EN" "http://www.w3.org/Graphics/SVG/1.1/DTD/svg11.dtd">
<svg version="1.1" id="Layer_1" xmlns="http://www.w3.org/2000/svg" xmlns:xlink="http://www.w3.org/1999/xlink" x="0px" y="0px"
	 width="100px" height="100px" viewBox="0 0 100 100" enable-background="new 0 0 100 100" xml:space="preserve">
<path fill="#C75C5C" d="M72.59,64.83c-0.002-0.092,0.078-0.275-0.023-0.289c-0.172,0.801-0.789,1.127-1.256,1.572
	c-0.703,0.684-1.514,1.328-2.199,2.146c-0.117,0.137,0.348,0.092,0.541,0.096c0.965,0.018,1.854-0.111,2.938,0.1
	c0.574,0.113,0.934,0.506,1.285,0.869c0.133,0.133-0.146,0.504-0.227,0.795c0.264,0.188,0.553,0.607,0.303,0.914
	c-0.473,0.578-0.461,1.572-0.275,2.178c0.006,0.936-0.234,1.943-0.379,2.854c-0.021,0.146,0.145,0.256,0.295,0.373
	c-0.438,1.451-1.572,1.955-2.4,2.834c-0.795,0.84-1.738,1.543-2.486,2.449c-0.846,1.568-2.174,2.41-3.207,3.41
	c-0.303,0.291-0.225,0.77-0.49,0.898c-0.07,0.037-0.408-0.125-0.416-0.113c-0.957,0.818-2.021,1.469-2.748,2.512
	c-1.865,1.42-3.574,3.09-5.361,4.629c-0.133,0.113-0.17,0.324-0.215,0.463c-0.43-0.045-0.74,0.332-1.014,0.559
	c-1.553,1.293-3.088,2.672-4.8,3.717c0.018,0.26-0.159,0.484-0.377,0.574c-0.173,0.064-0.18-0.307-0.307-0.236
	c-0.602,0.324-1.205,0.131-1.342-0.223c-0.442-0.281-0.826-0.654-1.34-0.668c-0.117,0-0.221-0.426-0.57-0.537
	c-0.093-0.027-0.111,0.338-0.284,0.471c-0.125,0.102-0.426,0.057-0.452-0.205c-0.041-0.404,0.034-0.928-0.213-1.359
	c-0.119-0.203-0.23,0.398-0.313,0.604c-0.258,0.633-0.198,1.273,0.106,1.65c0.056,0.07,0.385,0.084,0.491,0.107
	c-0.145,0.082-0.362,0.162-0.536,0.111c-0.275-0.076-0.504-0.334-0.521-0.441c-0.12-0.662-0.079-1.545,0.167-2.264
	c0.12-0.338-0.644-0.354-0.615-0.6c0.145-1.105,0.68-1.785,1.156-2.518c3.113-4.738,6.358-9.402,9.515-14.174
	c0.158-0.238-0.096-0.072-0.168-0.051l-6.186,1.824c-0.301,0.086-0.622,0.486-0.894,0.336c-0.075-0.043-0.294-0.301-0.304-0.393
	c-0.029-0.262-0.021-0.574-0.011-0.641c0.271-1.627,0.358-3.178,0.656-4.623c0.059-0.301,0.139-0.662,0.455-0.83
	c0.159-0.086,0.41-0.141,0.558-0.35c1.438-1.998,2.879-3.98,4.414-5.951c-1.324,0.102-2.416,0.648-3.58,0.984
	c-0.231,0.066-0.581-0.166-0.716,0.174c-0.078,0.209-0.252,0.539-0.46,0.434c-0.117-0.057-0.102-0.254-0.167-0.354
	c-0.041-0.061-0.35-0.121-0.367-0.18c-0.175-0.576-0.268-1.223-0.367-2.023c0.239-0.873,0.35-1.887,0.084-2.562
	c1.024-1.637,2.071-3.092,3.228-4.547c-3.754,0.598-7.412,1.283-11.317,1.551c-0.987-0.164-1.987-0.371-2.956-0.467
	c-0.03,0.066-0.151,0.242-0.187,0.029l-7.942-0.531c-0.332-0.406-0.892-0.406-1.424-0.52c0.149,0.111,0.015,0.229-0.094,0.113
	c-0.167-0.174-0.328,0.15-0.429,0.086c-0.089-0.062-0.2-0.35-0.253-0.363c-2.209-0.65-3.882-0.801-5.576-1.318l-4.314-1.262
	c-0.206-0.064-0.456-0.324-0.347-0.555c0.067-0.146,0.215-0.352,0.14-0.424c-0.332-0.332-0.772-0.572-1.281-0.9
	c-0.096-0.062-0.501,0.199-0.673-0.072c-0.08-0.121,0.012-0.291,0.037-0.418c-1.868-1.121-3.628-2.299-4.796-3.828
	C9.62,50.24,9.489,49.973,9.29,49.801c0.024-0.098,0.154-0.393,0.099-0.465c-1.107-1.477-2.229-2.97-2.991-4.748
	c-0.062-0.148,0.055-0.418,0.267-0.523c0.066-0.033,0.306,0.081,0.273,0.002c-0.536-1.321-1.034-2.584-1.241-4.015
	c-0.239-0.057-0.447-0.3-0.343-0.529c0.096-0.208,0.304-0.418,0.175-0.688c-0.079-0.166-0.504-0.048-0.456-0.287
	c0.152-0.696,0.277-1.231,0.501-1.758c0.074-0.172,0.083-0.542-0.149-0.714c-0.101,0.334-0.135,0.682-0.291,0.936
	c-0.097,0.149-0.475,0.064-0.438-0.166c0.053-0.367,0.265-0.903,0.49-1.47c-0.195,0.23-0.426,0.479-0.588,0.382
	c-0.101-0.062-0.218-0.215-0.186-0.334c0.499-1.878,1.375-3.407,1.884-5.283c0.048-0.189,0.16-0.765,0.197-0.94
	c-0.29,0.136-0.632,0.593-0.619,0.831c-0.493,1.041-0.756,1.98-1.058,2.954c-0.007,0.026,0.019,0.458,0,0.597
	c-0.041-0.418-0.188,0.032-0.195,0.079c-0.082,0.534-0.227,0.961-0.468,1.201c0.053,0.093,0.251,0.269,0.053,0.285
	c0.045,0.269-0.345,0.388-0.564,0.538c-0.127,0.091-0.271-0.172-0.248-0.275c0.278-1.539,0.766-2.721,1.234-3.989
	c0.705-1.906,1.381-3.816,2.065-5.493c-0.18-0.828,0.016-1.541,0.298-2.282c1.306-3.425,3.188-5.963,5.07-8.545
	c0.04-0.057,0.072-0.2,0.028-0.231c-0.103,0.041-0.41-0.084-0.252-0.239c0.954-0.938,2.115-1.885,3.107-2.947
	c0.529-0.563,1.036-1.107,1.474-1.555c0.345-0.346-0.3-0.082-0.498-0.48c0.675-0.56,1.607-0.977,2.543-1.283
	c0.474-0.393,0.983-0.808,1.586-1.096c0.039-0.018,0.272,0.06,0.353,0.078l-0.084,0.21c1.744-0.428,3.131-1.402,4.641-2.088
	c-0.281-0.045-0.197-0.328-0.539-0.239c-0.154,0.04-0.354,0.001-0.4-0.147c-0.04-0.135,0.035-0.286,0.192-0.311
	C29.79,3.821,35.48,3.072,40.984,2.007c1.175-0.443,2.625-0.407,4.14-0.283c5.052-0.161,10.337-0.313,16.229,1.13l2.84,0.891
	c2.65,0.514,5.213,0.673,7.955,1.213c0.018-0.152,0.037-0.409,0.219-0.37c0.514,0.117,1.004,0.275,1.334,0.627
	c3.371,0.643,5.906,1.767,8.541,3.028c0.236,0.111,0.486-0.502,0.631-0.192c0.135,0.293,0.35,0.643,0.904,0.587
	c0.127-0.011,0.23,0.062,0.322,0.157c-0.102,0.06-0.287,0.23-0.107,0.342c1.918,1.226,3.365,2.748,4.459,4.499
	c0.998,1.6,1.348,3.677,1.775,5.63c0.062,0.302-0.021,0.627,0.242,0.815c-0.125,0.626,0.25,1.14,0.244,1.667
	c-0.049,6.645-3.156,13.149-5.955,17.602c-0.764,1.215-1.24,2.737-1.787,4.221c-0.027,0.075-0.312,0.167-0.24-0.019
	c0.207-0.523,0.381-1.303,0.506-2.062c-0.746,1.011-1.406,2.201-2.117,3.285c0.152,0.266,0.082,0.661-0.168,1.014
	c-1.596,2.235-3.525,4.03-5.527,5.907c-0.252,0.52-0.771,0.84-1.248,1.018c-0.246,0.846-0.846,1.332-1.414,1.729
	c-1.811,1.264-3.82,2.27-6.021,3.104c0.406,0.221,0.836,0.211,1.182,0.203c1.434-0.037,3.086-0.09,4.424,0.441
	c0.512,0.438,0.865,0.842,0.846,1.398c-0.012,0.244,0.346,0.352,0.322,0.484c-0.326,1.967-0.576,3.92-0.486,5.619
	c-0.254,0.055-0.357-0.156-0.4-0.301C72.598,65.285,72.598,64.947,72.59,64.83z M69.43,5.957c-0.047-0.013-0.234,0.002-0.184,0.009
	l-2.318-0.481c-0.436-0.073-0.91,0.086-1.465-0.04c-0.305,0.173-0.77,0.099-1.057-0.217c-2.621-0.596-5.279-0.716-7.779-0.767
	c-2.488-0.053-5.355-0.497-7.729-0.283c-0.515,0.048-1.091-0.202-1.764,0.007c-1.808-0.1-3.75-0.453-5.692-0.393
	c0.069,0.188,0.245,0.224,0.221,0.439c-0.025,0.285-0.516,0.361-0.74,0.665c-1.771-0.458-3.314-0.433-4.673-0.225
	c-4.504,0.692-8.91,1.601-12.585,3.544c-5.911,2.577-11.07,6.927-12.66,15.958c-0.882,6.617,0.338,11.979,2.4,16.771
	c0.061,0.128,0.197,0.012,0.248,0c0.245-0.063,0.472,0.17,0.409,0.369c-0.144,0.468-0.072,1.03,0.224,1.31
	c0.129-0.078,0.406-0.28,0.507-0.311c0.279-0.089,0.372,0.257,0.443,0.47c0.044,0.142,0.078,0.804-0.021,0.956
	c-0.166,0.252,0.082,0.407,0.108,0.623c0.277-0.271,0.475-0.746,0.926-0.87c0.094-0.024,0.221,0.065,0.246,0.168
	c0.143,0.543-0.036,1.245-0.225,1.748c0.173,0.38,0.488,0.787,1.09,0.665c-0.095,0.517,0.285,0.935,0.729,1.179
	c0.092,0.048,0.323-0.465,0.752-0.471c0.201-0.002,0.176,0.255,0.192,0.375c0.039,0.319-0.318,0.904-0.016,1.124
	c0.205,0.148,0.503,0.281,0.754,0.481c0.22-0.156,0.471-0.405,0.686-0.306c0.333,0.152,0.393,0.462,0.306,0.734
	c-0.082,0.271,0.316,0.574,0.487,0.402c0.244-0.248,0.627-0.732,1.036-0.912c0.146-0.062,0.452-0.004,0.427,0.154
	c-0.089,0.549-0.152,1.037-0.418,1.377c0.631,0.359,1.519,0.736,2.275,1.043c0.133,0.053,0.267,0.047,0.344-0.025
	c0.211-0.207,0.471-0.438,0.718-0.285c0.283,0.172,0.032,0.488,0,0.736l3.583,0.793c0.216,0.039,0.529-0.426,0.721-0.352
	c0.229,0.084,0.281,0.34,0.173,0.521l3.896,0.594c0.304-0.221,0.62-0.457,0.965-0.641c0.129-0.066,0.342-0.074,0.461-0.01
	c0.296,0.164,0.161,0.494,0.081,0.732c2.225,0.125,4.279,0.086,6.373,0.031c5.388-0.145,10.764-0.268,15.877-0.689
	c0.244-0.021,0.756,0.35,0.469,0.799c-0.453,0.703-1.006,1.289-1.549,1.873c-2.389,2.58-4.928,5.037-6.984,8.332l7.045-2.166
	c0.127-0.041,0.252-0.049,0.246-0.057c0.623-0.111,1.346-0.375,2.008,0.09c0.123,0.086,0.168,0.393,0.082,0.592
	c-0.76,1.689-1.846,2.887-2.848,4.115c-0.072,0.096-0.076,0.451-0.121,0.494c-0.117,0.125-0.242,0.357-0.396,0.229
	c-1.93,2.127-3.621,4.598-5.351,7.018c-0.123,0.168-0.429,0.627-0.097,0.541c2.441-0.609,4.838-1.812,7.855-1.902
	c0.531-0.018,0.83,0.223,1.057,0.486c0.215,0.26,0.156,0.611,0.039,0.875c-0.396,0.848-0.926,1.58-1.357,2.346
	c0.139-0.176,0.668-0.029,0.516,0.105c-0.154,0.137-0.002,0.59-0.334,0.562c-0.287-0.025-0.658,0.084-0.785,0.279
	c-1.406,2.164-2.881,4.189-4.232,6.297c-2.154,3.35-4.566,6.463-6.809,10.096c4.062-2.859,7.586-6.041,11.24-9.045
	c5.285-4.348,9.918-9.625,14.672-14.895l-9.992-0.193c-0.172-0.006-0.748-0.094-0.488-0.529c-0.328,0.002-0.707-0.318-0.516-0.68
	c0.193-0.381,0.5-0.695,0.785-0.967c2.889-2.768,5.965-5.297,8.908-8.207c-2.607,0.092-5.449-0.377-8.279-0.873
	c-0.131-0.023-0.354-0.189-0.189-0.387c-0.211,0.008-0.496-0.115-0.494-0.336c0.012-0.4,0.27-0.82,0.496-1.152
	c1.463-2.125,3.256-3.84,4.955-5.613c0.105-0.107,0.229-0.037,0.217-0.037c1.635-0.43,3.082-1.047,4.361-1.854
	c1.152-0.388,1.834-1.367,2.727-2.177c0.205-0.186,0.576-0.313,0.791-0.086c3.195-2.26,5.982-5.082,8.447-8.803l1.01-3.566
	c0.355,0.081,0.379,0.428,0.361,0.677c-0.012,0.185-0.195,0.434,0.082,0.53c0.33-0.623,0.771-1.279,1.004-1.986
	c0.883-2.667,2.256-5.109,2.672-8.536c-0.514-2.867-0.775-6.018-1.021-9.128l-1.988-2.81c-2.021-2.205-4.938-3.824-8.301-5.154
	C75.162,7.139,72.262,6.6,69.43,5.957z M55.436,53.949c-0.633,0.072-1.453,0.139-2.053,0.129c-0.242,0.521-0.537,0.936-0.773,1.34
	c-0.076,0.125-0.305,0.293-0.416,0.113c-0.072-0.117,0.119-0.486,0.02-0.428c-1.235,0.74-2.265,1.9-3.102,3.289
	c0.108,0.086,0.244-0.049,0.214,0.023c0.943-0.133,1.843-0.412,2.813-0.174c1.299-1.471,2.643-2.834,3.953-4.305
	C55.934,53.943,55.561,53.934,55.436,53.949z M73.445,49.729c-0.17,0.041-0.291,0.057-0.342,0.084
	c-0.318,0.172-0.838,0.293-1.078,0.617l-2.795,3.76c-0.119,0.486-0.553,0.898-0.9,1.131c-0.258,0.168-0.297-0.225-0.209-0.35
	l2.604-3.92c-0.213,0.133-0.432,0.221-0.523,0.336c-1.26,1.568-2.541,3.248-3.771,5.088c0.025,0.037-0.299,0.283,0.045,0.096
	c0.342-0.18,0.816-0.301,1.393-0.467c0.217-0.357,0.688-0.914,1.277-0.879c0.582-0.223,1.135-0.629,1.762-1.131
	C71.623,52.744,72.598,51.248,73.445,49.729z M72.74,71.051c-0.705,0.82-1.439,1.678-2.154,2.369
	c-0.568,2.172-0.936,4.168-1.256,6.322c0.889-2.395,1.367-5.287,2.59-7.143c0.053-0.078,0.217-0.115,0.34-0.082
	c0.102,0.025,0.107,0.316,0.266,0.389c0.023,0.564,0.057,1.227-0.201,1.783c-0.068,0.141-0.303,0.166-0.48,0.012
	c-0.062-0.055-0.146-0.645-0.203-0.865l-1.506,5.102c0.652-0.588,1.258-1.158,1.916-1.678l0.322-1.555
	c0.195-0.992,0.432-1.998,0.311-2.809c-0.086-0.609-0.162-1.393,0.242-2.012C72.83,70.896,72.785,70.996,72.74,71.051z
	 M37.085,54.545c-0.339,0.109-0.638,0.375-0.923,0.604c-1.192,0.973-2.144,2.248-3.173,3.465c-0.077,0.09,0.166,0.025,0.189,0.029
	c0.949,0.131,1.749,0.076,2.59-0.014c0.711-1.174,1.499-2.32,1.894-4.059C37.459,54.541,37.247,54.492,37.085,54.545z
	 M43.002,54.451c-0.123-0.018-0.266,0.012-0.359,0.082c-1.519,1.148-2.735,2.766-3.978,4.328c0.608,0.189,1.272,0.471,1.853,0.621
	c0.839-1.324,1.737-2.449,2.473-3.818c0.189-0.352,0.35-0.746,0.415-1.242C43.275,54.4,43.139,54.469,43.002,54.451z M11.492,40.434
	c-0.104,0.176-0.417,0.686-0.496,0.868c-0.526,1.194-0.967,2.525-1.419,3.835c-0.119,0.335-0.377,0.796-0.161,1.101l0.941,1.448
	c0.622-2.09,1.372-4.372,1.659-6.665c0.039-0.322-0.231-0.55-0.402-0.815C11.566,40.136,11.537,40.354,11.492,40.434z
	 M48.021,54.354c-0.214-0.002-0.384,0.158-0.534,0.283c-1.367,1.119-2.474,2.623-3.646,4.033c-0.149,0.178-0.311,0.465-0.313,0.648
	c0.557-0.113,1.097-0.041,1.7-0.156c0.192-0.033,0.539-0.014,0.69-0.277c0.827-1.457,1.848-2.832,2.511-4.623
	C48.278,54.332,48.148,54.354,48.021,54.354z M57.602,2.665c-3.562-0.62-6.877-0.65-10.027-0.489
	c3.126,0.645,6.164,0.974,8.939,0.958c0.055,0,0.193-0.188,0.344-0.157c1.502,0.294,2.883,0.331,4.311,0.479
	C60.176,3.046,58.777,2.867,57.602,2.665z M33.462,54.287c-0.013,0.041-0.053,0.203-0.102,0.258
	c-1.081,1.234-2.189,2.531-3.139,4.039l1.876,0.043c0.841-1.367,1.708-2.754,2.513-4.176C34.215,54.332,33.841,54.289,33.462,54.287
	z M45.671,54.344c-0.188,0.045-0.362,0.076-0.387,0.098c-1.651,1.238-2.917,3.035-4.08,4.992c0.461-0.039,0.975,0.014,1.501-0.059
	C43.738,57.834,44.888,56.357,45.671,54.344z M39.74,54.516c-0.04-0.004-0.177,0.092-0.21,0.127
	c-1.182,1.078-2.102,2.594-3.112,4.059c0.582-0.182,1.147-0.074,1.657,0.016c0.866-1.314,1.715-2.539,2.315-4.158
	C40.17,54.502,39.953,54.52,39.74,54.516z M31.134,53.875c-1.162,1.156-2.172,2.547-3.197,3.938c0.541,0.223,1.07,0.361,1.605,0.451
	l2.302-4.242C31.556,53.889,31.307,54.002,31.134,53.875z M14.911,45.779c-0.846,1.746-1.456,3.711-2.133,5.667
	c-0.09,0.242,0.399,0.541,0.549,0.973c0.684-2.072,1.507-3.9,2.077-6.001C15.464,46.173,15.081,46.002,14.911,45.779z M55.996,87.49
	c-0.014,0-0.074,0.014-0.09,0.027c-0.396,0.275-0.746,0.643-1.004,1.098c-0.797,1.387-1.408,2.916-1.973,4.645
	c-0.098,0.289-0.234,0.918-0.178,0.879c0.418-0.299,0.869-0.559,1.182-0.875c0.662-2.195,1.447-4.068,2.309-5.928
	C56.137,87.361,56.084,87.465,55.996,87.49z M62.637,81.643c-0.438,0.379-0.727,0.838-1.174,1.127
	c-0.844,1.926-1.525,4.141-2.314,6.264c0.441-0.199,0.717-0.566,1.049-0.811c0.166-0.123-0.092-0.271-0.041-0.428
	c0.143-0.475,0.543-0.672,0.729-0.92L62.637,81.643z M13.57,44.602c-0.03,0.082-0.159,0.315-0.191,0.397
	c-0.622,1.659-1.147,3.482-1.651,5.211c-0.088,0.307,0.279,0.48,0.482,0.721l2.122-5.947c0.061-0.155-0.439-0.533-0.622-0.813
	C13.676,44.272,13.598,44.522,13.57,44.602z M19.342,49.885c-0.027,0.02-0.09,0.066-0.097,0.068
	c-0.83,1.266-1.543,2.777-2.226,4.258c0.27,0.377,0.67,0.496,0.888,0.895c0.613-1.701,1.377-3.146,2.009-4.826
	C19.969,50.133,19.468,50.127,19.342,49.885z M58.037,86.127c-0.439,0.275-0.652,0.635-0.918,1.002
	c-1.035,1.428-1.629,3.508-2.369,5.467l1.469-1.189c0.549-1.902,1.324-3.475,2-5.35C58.264,85.938,58.051,86.117,58.037,86.127z
	 M16.204,47.473c-0.567,0.95-0.992,2.072-1.44,3.216c-0.253,0.641-0.567,1.451-0.685,2.148c0.386,0.023,0.875,0.346,0.921,0.203
	l1.733-5.249c0.047-0.136-0.173-0.21-0.218-0.313C16.447,47.339,16.286,47.332,16.204,47.473z M9.593,31.651
	c-0.024,0.189-0.273,0.282-0.342,0.43L7.274,36.33c-0.478,0.936-0.517,1.881-0.173,2.606c0.809-2.26,1.729-4.348,2.631-6.506
	c0.07-0.172-0.044-0.428-0.011-0.68C9.732,31.641,9.638,31.292,9.593,31.651z M60.684,83.361c-0.262,0.307-0.416,0.406-0.635,0.678
	c-1.174,1.447-2.033,3.912-2.74,6.371c-0.014,0.043-0.33,0.391-0.125,0.188c0.359-0.367,0.857-0.566,1.186-0.908
	C59.055,87.545,59.77,85.453,60.684,83.361z M57.582,73.902c-0.24,0.031-0.725,0.029-0.83,0.111
	c-1.162,0.891-2.199,2.047-3.035,3.447c0.758-0.148,1.451-0.461,2.223-0.705l0.693-1.131C56.932,75.154,57.383,74.484,57.582,73.902
	z M65.262,79.107c-0.098,0.098-0.234,0.182-0.367,0.363c-1.15,1.586-2.064,3.887-2.779,6.32c0.447-0.363,0.846-0.695,1.229-1.131
	c0.496-1.494,1.066-2.955,1.715-4.479c0.031-0.07-0.072-0.23-0.184,0.025c-0.184-0.15,0.104-0.279-0.086-0.428
	c0.115-0.289,0.275,0.068,0.385,0.137l0.135-0.627C65.438,79.285,65.441,78.924,65.262,79.107z M68.992,75.162
	c-0.068,0.086-0.213,0.385-0.27,0.473c-1.127,1.695-1.76,4.057-2.352,6.502c0.301-0.131,0.818-0.33,0.902-0.615l1.801-6.141
	C69.061,75.387,69.293,74.715,68.992,75.162z M20.839,50.961c-0.648,0.896-1.223,1.979-1.729,3.027
	c-0.289,0.6-0.471,1.297-0.911,1.609c0.357,0.084,0.644,0.389,1.018,0.529c0.663-1.883,1.413-3.553,2.259-5.105
	c-0.091-0.037-0.405-0.117-0.44-0.188C20.897,50.586,20.874,50.916,20.839,50.961z M28.745,53.492
	c-1.114,1.35-2.161,2.883-3.3,4.395c0.589-0.223,1.104-0.168,1.552-0.16l2.381-4.365C29.085,53.629,28.905,53.527,28.745,53.492z
	 M66.518,65.027c-0.123,0.082-0.32,0.193-0.371,0.242c-1.033,1.033-2.199,1.906-3.254,3.029c0.965,0.062,1.689-0.031,2.533-0.018
	C65.664,67.006,66.137,66.092,66.518,65.027z M66.896,77.807c-0.059,0.025-0.119,0.086-0.135,0.107
	c-1.174,1.613-1.838,3.953-2.617,6.168l1.234-1.045c0.514-1.629,1.072-3.229,1.559-4.979C66.951,78.008,67.057,77.75,66.896,77.807z
	 M17.566,48.924c-0.029,0.049-0.123,0.184-0.148,0.234c-0.647,1.334-1.214,2.791-1.812,4.188c0.139,0.139,0.292,0.264,0.459,0.346
	c0.122,0.059,0.351,0.133,0.412-0.035l1.62-4.662c-0.096-0.096-0.214-0.213-0.388-0.326C17.629,48.619,17.612,48.846,17.566,48.924z
	 M24.414,52.348c-0.064,0.08-0.217,0.258-0.262,0.322c-0.812,1.217-1.652,2.447-2.387,3.834c0.232,0.178,0.803,0.186,1.163,0.162
	c0.528-1.518,1.276-2.807,1.9-4.203L24.414,52.348z M53.385,89.66c-0.266,0.26-0.711,0.355-0.836,0.717
	c-0.439,1.289-0.877,2.773-1.25,4.084c-0.076,0.275-0.197,0.85,0.057,0.715c0.053-0.025,0.426-0.168,0.494-0.371l1.566-4.838
	C53.447,89.863,53.639,89.414,53.385,89.66z M12.89,42.771c-0.587,1.631-1.262,3.142-1.705,5.159
	c-0.318,0.376-0.201,0.996,0.166,1.263c0.583-1.96,1.262-3.789,1.797-5.827C13.192,43.198,13.064,42.896,12.89,42.771z
	 M10.232,37.377c-0.015,0.098-0.187,0.235-0.215,0.292c-0.687,1.376-1.204,3.031-1.835,4.509c-0.316,0.733-0.27,1.288-0.02,1.813
	c0.821-2.062,1.631-4.294,2.241-6.649C10.471,37.082,10.252,37.275,10.232,37.377z M50.233,54.67
	c-0.022,0.049-0.119,0.076-0.139,0.094c-1.152,1.045-2.115,2.338-3.158,3.621c-0.025,0.027,0.083,0.287,0.291,0.252
	c0.322-0.055,0.645-0.191,1.022-0.166c0.653-1.258,1.443-2.338,2.142-3.822C50.408,54.604,50.301,54.492,50.233,54.67z
	 M51.453,91.174c-0.229,0.154-0.424,0.377-0.519,0.623c-0.391,1.1-0.806,2.207-1.146,3.438c-0.089,0.322,0.273,0.676,0.119,0.971
	c-0.08,0.141-0.282,0.104-0.429,0.084c-0.086,0.316-0.143,0.631-0.121,0.947c0.194-0.127,0.537-0.143,0.619-0.416l1.574-5.254
	C51.578,91.482,51.871,90.898,51.453,91.174z M76.842,47.309c-0.533,0.217-0.92,0.706-1.279,1.209
	c-0.932,1.294-1.773,2.705-2.721,4.013c-0.162,0.223,0.061,0.043,0.232-0.059c1.283-0.781,2.244-2.232,3.109-3.885
	c0.195-0.369,0.352-0.744,0.617-1.056C76.824,47.507,76.842,47.36,76.842,47.309z M26.503,53.178c-0.98,1.166-1.829,2.6-2.751,3.885
	c0.375,0.049,0.659,0.213,0.96,0.322l2.212-4.262C26.79,53.068,26.63,53.025,26.503,53.178z M9.665,33.852l-2.298,5.762
	C7.125,40.19,7.2,40.542,7.429,40.926l2.489-6.886c0.078-0.206,0.029-0.466-0.116-0.611C9.774,33.524,9.694,33.771,9.665,33.852z
	 M9.338,29.765c-0.573,0.732-1.007,1.62-1.374,2.658c-0.425,1.2-1.1,2.225-1.259,3.652c0.144-0.062,0.222-0.189,0.268-0.288
	c0.918-2.024,1.884-4.005,2.664-6.232C9.423,29.371,9.429,29.652,9.338,29.765z M69.91,61.936c-0.656,0.34-1.004,1.113-1.359,1.914
	c-0.453,1.018-0.771,2.295-1.215,3.652C68.494,65.877,69.273,64.031,69.91,61.936z M21.634,51.674
	c-0.634,1.504-1.401,2.877-1.906,4.535c0.931-1.529,1.903-3.113,2.867-4.582c-0.208-0.15-0.5-0.336-0.802-0.457
	C21.758,51.277,21.675,51.578,21.634,51.674z M53.998,66.312c0.131,0.053,0.377,0.053,0.492-0.088
	c0.889-1.07,1.793-2.182,2.592-3.391l-1.873,0.549c-0.195,0.051-0.031,0.244-0.018,0.32c0.219-0.113,0.553-0.139,0.742-0.377
	c-0.035,0.15-0.066,0.494-0.131,0.6c-0.08,0.127-0.336,0.057-0.447,0.201C54.861,64.77,54.447,65.607,53.998,66.312z M25.29,52.59
	c-0.161,0.295-0.424,0.77-0.507,0.979c-0.438,1.111-0.995,2.123-1.396,3.268c0.907-1.369,1.925-2.695,2.909-3.975
	C25.926,52.912,25.607,52.713,25.29,52.59z M52.973,54.146c-0.803-0.049-1.514,0.033-2.137,0.137
	c-0.28,1.096-0.806,1.893-1.432,2.771c0.306-0.18,0.446-0.348,0.584-0.531c0.637-0.828,1.527-1.619,2.771-1.904
	C52.781,54.617,53.182,54.158,52.973,54.146z M27.19,53.516c-0.451,0.912-0.922,1.631-1.296,2.541
	c-0.129,0.311-0.493,1.004-0.525,1.34c0.983-1.508,1.951-2.721,2.961-3.982l-1.068-0.236C27.247,53.246,27.221,53.455,27.19,53.516z
	 M68.51,52.039c-0.18,0.053-0.348,0.105-0.344,0.102c-0.881,1.293-2.139,2.666-2.729,3.877c-0.115,0.234-0.188,0.562-0.488,0.701
	c0.146,0.182,0.352-0.09,0.57,0.07L68.51,52.039z M54.492,74.598c-0.215,0.135-0.49,0.27-0.551,0.357l-2.229,2.969
	c0.408,0.023,0.77-0.168,1.174-0.186C53.359,76.756,53.986,75.779,54.492,74.598z M22.774,52.094
	c-0.956,1.41-1.774,3.002-2.685,4.451c0.072,0.031,0.314,0.133,0.415,0.162c0.119,0.033,0.371,0.188,0.475-0.139
	c0.553-1.754,1.305-3.174,2.036-4.689C22.834,51.822,22.826,52.018,22.774,52.094z M10.777,39.839
	c-0.627,1.364-1.289,2.758-1.919,4.228c-0.192,0.453-0.264,0.958,0,1.28c0.751-1.763,1.415-3.681,2.051-5.586
	C10.918,39.748,10.809,39.78,10.777,39.839z M29.611,53.709l-1.883,3.719c0.931-1.246,1.865-2.557,2.893-3.594
	C30.322,53.738,29.98,53.709,29.611,53.709z M9.511,24.991c-0.929,1.314-1.574,3.036-2.099,4.927
	c0.88-1.499,1.688-3.184,2.276-5.171C9.55,24.705,9.562,24.917,9.511,24.991z M68.148,63.588l-0.951,0.805l-1.266,3.312
	c0.52-0.639,0.938-1.416,1.283-2.207C67.5,64.848,67.938,64.291,68.148,63.588z M36.265,54.574
	c-0.425-0.088-0.928-0.248-1.097-0.055c-0.63,0.74-1.087,1.732-1.557,2.627C34.376,56.156,35.305,55.268,36.265,54.574z
	 M78.547,46.002c-0.598,0.331-1.047,0.904-1.393,1.638c-0.369,0.772-0.828,1.411-1.248,2.292c0.568-0.455,1.049-0.939,1.207-1.773
	c0.439-0.258,0.609-0.765,0.908-1.207C78.227,46.657,78.428,46.353,78.547,46.002z M49.986,54.256
	c-0.315,0.146-0.65-0.031-1.016,0.008c-0.235,0.025-0.227,0.297-0.271,0.449c-0.251,0.818-0.698,1.439-1.062,2.057
	c0.74-0.836,1.491-1.664,2.342-2.328C50.057,54.379,50.264,54.125,49.986,54.256z M71.123,60.803
	c-0.121,0.146-0.205,0.332-0.301,0.473c-0.596,0.906-1.051,2.764-1.287,4.301l0.756-1.752
	C70.617,62.857,70.801,61.678,71.123,60.803z M30.844,56.875c0.046-0.027,0.154-0.105,0.183-0.143
	c0.586-0.719,1.411-1.838,1.973-2.469c-0.32-0.064-0.541-0.143-0.766-0.129C31.806,55.129,31.232,55.832,30.844,56.875z
	 M8.973,28.13c-0.619,1.552-1.421,2.883-1.992,4.515c-0.069,0.195-0.185,0.808-0.188,1.027c0.343-0.625,0.624-1.392,0.909-2.104
	l1.268-3.132C8.992,28.383,9.013,28.206,8.973,28.13z M23.383,52.145c-0.662,1.258-1.25,2.459-1.758,3.857
	c0.652-1.398,1.483-2.68,2.331-3.801c0.103-0.141-0.271-0.125-0.437-0.287C23.456,51.848,23.426,52.061,23.383,52.145z
	 M50.25,75.961c-0.515,0.561-0.947,1.156-1.403,1.746c-0.209,0.271-0.316,0.6-0.306,0.926c0.006,0.123-0.023,0.318,0.078,0.166
	c0.585-0.842,1.256-1.725,1.772-2.742C50.472,75.895,50.31,75.895,50.25,75.961z M12.955,15.052c0.777-0.907,1.67-1.652,2.413-2.605
	c-0.092-0.164-0.224,0.311-0.322,0.005c-0.618,0.406-1.242,1.098-1.75,1.716C13.084,14.425,12.948,14.75,12.955,15.052z
	 M41.136,54.469c-0.109-0.016-0.281,0.027-0.293,0.086c-0.183,0.766-0.588,1.385-0.908,1.934c0.657-0.658,1.316-1.363,2.018-1.939
	C41.699,54.49,41.417,54.5,41.136,54.469z M22.049,7.494c-1.557,0.844-3.066,1.76-4.597,2.893c-0.008,0.006,0.01,0.149,0.115,0.065
	c0.667-0.537,1.44-0.934,2.152-1.401c0.773-0.509,1.577-1.035,2.463-1.354C22.422,7.616,22.099,7.469,22.049,7.494z M46.79,54.342
	c-0.021,0-0.089,0.064-0.107,0.061c-0.201,0-0.399-0.043-0.597-0.086c-0.204,0.697-0.481,1.318-0.766,1.865
	c0.552-0.65,1.187-1.219,1.767-1.775C47.059,54.4,46.854,54.342,46.79,54.342z M68.76,66.191l-1.176,1.875
	c-0.191,0.283,0.105,0,0.141,0.061c0.629-0.43,1.27-1.088,1.127-2.201C68.816,65.916,68.814,66.113,68.76,66.191z M10.739,38.003
	c-0.143,0.709-0.498,1.558-0.626,2.214c0.26-0.668,0.689-1.117,1.028-1.594c0.129-0.174-0.204-0.709-0.314-1.011
	C10.803,37.711,10.751,37.93,10.739,38.003z M71.605,61.145c-0.043,0.475-0.4,0.92-0.4,1.531c0,0.434-0.273,0.977-0.078,1.424
	l0.57-2.605c0.061-0.266,0.275-0.699,0.041-0.986C71.713,60.625,71.621,61.012,71.605,61.145z M69.199,77.414
	c-0.332,1.193-0.662,2.291-1.105,3.395c0.232-0.26,0.582-0.344,0.629-0.611L69.199,77.414z M73.018,51.41
	c0.607-0.9,1.365-1.826,1.893-2.742c-0.246,0.182-0.676,0.27-0.756,0.488C73.84,49.996,73.375,50.695,73.018,51.41z M53.998,66.312
	c-0.176-0.023-0.406-0.139-0.354-0.262l0.658-1.504c-0.574,0.572-0.957,1.184-1.287,1.855c0.242,0.014,0.549,0.02,0.82-0.037
	C53.879,66.361,53.936,66.307,53.998,66.312z M18.337,49.799c-0.202,0.604-0.445,1.18-0.609,1.814l1.225-2.008
	c-0.117-0.164-0.394-0.076-0.458-0.311C18.461,49.404,18.374,49.703,18.337,49.799z M38.084,54.5
	c0.021,0.543-0.193,1.047-0.52,1.746l1.398-1.658L38.084,54.5z M52.451,75.861l-1.927,2.309c0.089,0.158,0.297,0.051,0.446,0.084
	c0.021-0.059,0.078-0.264,0.113-0.324L52.451,75.861z M67.203,66.551l-1.023,1.732c0.191,0.061,0.428,0.033,0.645,0.043
	C66.828,67.793,66.996,67.059,67.203,66.551z M55.85,74.229l-1.021,0.211c-0.025,0.408-0.127,0.857-0.357,1.145
	C54.885,75.082,55.381,74.646,55.85,74.229z M7.663,23.081c-0.275,0.392-0.444,1.107-0.509,1.662l0.668-1.537
	c0.103-0.124,0.266-0.376,0.061-0.511C7.772,22.797,7.719,22.941,7.663,23.081z M12.195,42.65c-0.087,0.382-0.27,1.068-0.258,1.417
	l0.416-1.25c0.141-0.359,0.305-0.8,0.018-1.006C12.34,41.953,12.231,42.477,12.195,42.65z M30.128,4.435
	c-0.846,0.039-1.588,0.213-2.223,0.572c0.671-0.124,1.404-0.355,2.046-0.438C30.054,4.557,30.109,4.468,30.128,4.435z
	 M16.852,48.943c-0.076,0.25-0.231,0.605-0.139,0.805c0.203-0.539,0.394-1.021,0.687-1.416L17.1,48.014
	C17.047,48.209,16.904,48.762,16.852,48.943z M49.345,92.914c-0.031,0.016-0.123,0.035-0.148,0.094
	c-0.189,0.41-0.344,1.094-0.246,1.646c0.171-0.662,0.3-1.176,0.484-1.646C49.479,92.896,49.469,92.84,49.345,92.914z M64.18,56.449
	c-0.332,0.127-0.318,0.504-0.465,0.652c0.072,0.045,0.766,0.289,0.385-0.043c0.096-0.26,0.32-0.553,0.219-0.797
	C64.229,56.031,64.184,56.373,64.18,56.449z M88.863,20.027c-0.008,0.155-0.043,0.335,0.059,0.462l0.188,1.89
	c0.117-0.613-0.014-1.26-0.127-1.822c0.002,0.013-0.035-0.05-0.061-0.068C88.945,20.333,88.982,20.155,88.863,20.027z M44.46,54.5
	c-0.158-0.027-0.4-0.186-0.501-0.031c-0.142,0.225-0.178,0.555-0.35,0.893C43.965,55.105,44.173,54.732,44.46,54.5z M15.499,12.123
	c0.465-0.136,0.783-0.645,1.192-0.936c0.01-0.007,0.052-0.106,0.055-0.162l0.116-0.042l-0.116,0.042
	C16.25,11.272,15.9,11.734,15.499,12.123z M50.623,76.939c-0.392,0.416-0.708,0.963-1.042,1.461
	c-0.224,0.328,0.171,0.006,0.152-0.014c0.253-0.457,0.551-0.812,0.804-1.193C50.564,77.152,50.615,77,50.623,76.939z M16.001,44.16
	c-0.083,0.093-0.316,0.391-0.359,0.515c-0.059,0.162,0.171,0.331,0.324,0.322c-0.066-0.184,0.051-0.409,0.097-0.654
	C16.18,44.337,16.176,43.972,16.001,44.16z M22.216,49.25c-0.209,0.164-0.526,0.281-0.536,0.586
	c-0.005,0.107,0.142,0.197,0.264,0.232L22.216,49.25z M70.447,64.961c-0.238,0.295-0.361,0.646-0.537,0.977
	c0.139-0.035,0.256-0.133,0.363-0.207C70.553,65.543,70.471,65.217,70.447,64.961z M9.833,23.236
	c0.014,0.298-0.344,0.674-0.218,0.924c0.333-0.448,0.375-1.067,0.4-1.625C9.96,22.678,9.827,23.1,9.833,23.236z M49.25,65.436
	c0,0.176-0.108,0.449,0.006,0.564c0.114-0.322,0.171-0.658,0.362-0.912l-0.319-0.08C49.256,65.145,49.256,65.287,49.25,65.436z
	 M20.198,50.961c-0.044,0.096-0.155,0.334-0.046,0.414c0.072-0.303,0.307-0.479,0.436-0.734c0.06-0.123-0.158-0.1-0.245-0.123
	C20.321,50.59,20.253,50.844,20.198,50.961z M15.938,46.78c-0.291,0.208-0.311,0.664-0.272,0.87
	C15.753,47.342,16.037,47.079,15.938,46.78z M23.196,7.071c-0.27,0.062-0.621,0.093-0.8,0.27c-0.144,0.135,0.101,0.111,0.185,0.079
	C22.817,7.328,23.037,7.237,23.196,7.071z M48.718,76.453c0.113-0.086,0.283-0.24,0.269-0.42c0.162-0.092,0.006-0.271-0.124-0.252
	L48.718,76.453z M9.398,28.675c-0.068,0.159-0.271,0.343-0.224,0.47c0.278-0.211,0.464-0.648,0.363-0.911
	C9.503,28.343,9.431,28.594,9.398,28.675z M68.611,52.654l0.242-0.295L69,52.121c0.148-0.014,0.242-0.156,0.23-0.299
	c-0.146,0.012-0.238,0.154-0.23,0.299l-0.146,0.238L68.611,52.654z M52.656,64.146c-0.264,0.01-0.367,0.316-0.41,0.518
	C52.467,64.584,52.58,64.371,52.656,64.146z M30.128,4.435c0.133,0.082,0.3,0.058,0.375-0.073l0.271-0.032l0.186-0.046l0.18-0.004
	l-0.18,0.004L30.775,4.33l-0.271,0.032C30.378,4.359,30.231,4.355,30.128,4.435z M72.113,59.857
	c-0.053,0.037-0.193,0.107-0.207,0.137c-0.074,0.143-0.092,0.396,0.004,0.475C71.998,60.262,72.166,60.029,72.113,59.857z
	 M8.332,21.998c0.13-0.104,0.076-0.241,0.041-0.337c-0.14,0.043-0.186,0.185-0.182,0.337C8.19,22.169,8.389,22.169,8.332,21.998z
	 M48.033,93.881c-0.263,0.211-0.314,0.65-0.244,0.889C47.794,94.416,48.025,94.148,48.033,93.881z M72.096,73.729l0.111,0.023
	c0.1-0.17,0.09-0.551,0.049-0.76L72.096,73.729z M35.135,52.955c-0.089,0.055-0.168,0.111-0.277,0.156
	c-0.32,0.135,0.148,0.174,0.239,0.166C35.112,53.197,35.177,53.031,35.135,52.955z M14.764,42.827
	c-0.051,0.031-0.2,0.095-0.228,0.145c-0.053,0.092,0.076,0.223,0.193,0.306C14.839,43.192,14.785,42.932,14.764,42.827z
	 M8.747,20.937c-0.188,0.084-0.206,0.32-0.326,0.479C8.541,21.525,8.777,21.156,8.747,20.937z M23.196,7.071
	c0.207,0.058,0.362-0.123,0.493-0.238l0.182-0.004l-0.182,0.004C23.483,6.782,23.331,6.961,23.196,7.071z M44.834,2.214
	l-0.012,0.078c0.205,0.091,0.462,0.083,0.649-0.039L44.834,2.214z M52.312,66.363c-0.061,0.082-0.119,0.242-0.078,0.242
	c0.258-0.008,0.193-0.299,0.246-0.48C52.357,66.09,52.363,66.295,52.312,66.363z M64.807,56.93
	c-0.203,0.053-0.135,0.271-0.307,0.361C64.68,57.389,64.865,57.051,64.807,56.93z"/>
</svg>
