<?xml version="1.0" encoding="utf-8"?>
<!-- Generator: Adobe Illustrator 16.0.0, SVG Export Plug-In . SVG Version: 6.00 Build 0)  -->
<!DOCTYPE svg PUBLIC "-//W3C//DTD SVG 1.1//EN" "http://www.w3.org/Graphics/SVG/1.1/DTD/svg11.dtd">
<svg version="1.1" id="Layer_1" xmlns="http://www.w3.org/2000/svg" xmlns:xlink="http://www.w3.org/1999/xlink" x="0px" y="0px"
	 width="100px" height="39.734px" viewBox="0 0 100 39.734" enable-background="new 0 0 100 39.734" xml:space="preserve">
<g>
	<path fill="#EC1C24" d="M16.262,0h-5.328C5.701,0,1.261,3.984,1.261,11.72c0,4.641,2.151,8.062,5.981,9.75L0.093,34.408
		c-0.233,0.423,0,0.75,0.373,0.75h3.318c0.28,0,0.467-0.094,0.561-0.327l6.495-12.705h2.338v12.705c0,0.14,0.14,0.327,0.326,0.327
		h2.899c0.28,0,0.374-0.141,0.374-0.374V0.469C16.777,0.14,16.59,0,16.262,0z M13.178,19.126h-1.963
		c-3.084,0-6.075-2.25-6.075-7.875C5.14,5.39,7.943,3,10.794,3h2.384V19.126z"/>
	<path d="M33.828,11.655h-2.897c-0.234,0-0.374,0.187-0.374,0.327v8.954h-5.375v-8.954c0-0.233-0.092-0.327-0.326-0.327h-2.899
		c-0.232,0-0.373,0.141-0.373,0.327v22.784c0,0.234,0.094,0.374,0.326,0.374h2.946c0.187,0,0.326-0.14,0.326-0.374V23.891h5.375
		v10.875c0,0.234,0.14,0.374,0.374,0.374h2.897c0.233,0,0.327-0.187,0.327-0.374V11.982C34.155,11.795,34.015,11.655,33.828,11.655z
		"/>
	<path d="M99.983,33.641l-0.374-1.594c-0.046-0.141-0.093-0.188-0.232-0.188c-0.233,0-1.496,0.515-3.318,0.515
		c-3.552,0-5.281-3.42-5.281-8.859c0-4.782,1.449-9.516,3.879-9.516c0.654,0,1.449,0.187,2.71,1.36
		c0.141,0.141,0.234,0.187,0.374,0.187c0.141,0,0.28-0.095,0.421-0.329l1.263-2.062c0.093-0.142,0.14-0.284,0.14-0.424
		c0-0.187-0.187-0.327-0.468-0.468c-1.917-0.985-3.225-1.172-4.346-1.172c-4.394,0-7.806,5.25-7.806,13.453
		c0,7.079,3.272,11.157,7.945,11.157c1.964,0,4.066-0.937,4.907-1.547C99.983,34.015,100.029,33.828,99.983,33.641z"/>
	<path d="M79.673,22.248l5.607-10.266c0.094-0.14,0.046-0.327-0.141-0.327h-2.757c-0.795,0-1.075,0.281-1.354,0.89l-4.207,8.767
		c-0.232,0.516-0.467,0.844-0.7,0.985V11.982c0-0.187-0.094-0.327-0.28-0.327h-3.038c-0.14,0-0.28,0.141-0.28,0.327v22.831
		c0,0.141,0.094,0.327,0.28,0.327h3.038c0.187,0,0.28-0.14,0.28-0.327V23.046c0.14,0.094,0.233,0.234,0.327,0.423l5.327,10.969
		c0.28,0.562,0.7,0.702,1.309,0.702h2.991c0.187,0,0.233-0.187,0.14-0.327L79.673,22.248z"/>
	<path d="M52.896,32.187h-0.562c-0.701,0-0.888-0.28-0.888-0.843V11.982c0-0.233-0.094-0.327-0.28-0.327H41.82
		c-0.234,0-0.374,0.141-0.374,0.327v1.688c0,5.672-0.328,12.985-3.318,18.517h-1.029c-0.281,0-0.374,0.143-0.374,0.376
		c0,0,0,5.625,0,6.844c0,0.235,0.187,0.328,0.327,0.328h2.244c0.513,0,0.7-0.375,0.7-0.703V35.14h10.002v4.267
		c0,0.188,0.139,0.328,0.326,0.328h2.385c0.278,0,0.559-0.234,0.559-0.703v-6.469C53.268,32.329,53.128,32.187,52.896,32.187z
		 M47.848,32.187h-6.776c2.384-4.078,3.318-8.672,3.645-14.297c0.093-1.218,0.14-2.485,0.14-3.282h2.991V32.187z"/>
	<path d="M62.429,11.092c-5.047,0-7.291,6.375-7.291,13.313c0,7.079,3.178,11.297,7.852,11.297c2.29,0,4.3-0.89,5.327-1.547
		c0.187-0.094,0.233-0.233,0.187-0.421l-0.373-1.594c-0.047-0.188-0.141-0.281-0.374-0.281c-0.186,0-1.542,0.515-3.459,0.515
		c-3.598,0-5.279-3.14-5.279-7.265c0-0.564,0-1.11,0-1.11s1.821,0.219,2.896,0.219h6.823v-1.97
		C68.737,14.983,66.166,11.092,62.429,11.092z M61.914,21.265c-1.075,0-2.757,0.188-2.757,0.188s0-0.703,0.094-1.454
		c0.419-3.984,1.401-6,3.037-6c1.496,0,2.43,2.062,2.663,5.672c0.047,0.75,0.047,1.594,0.047,1.594H61.914z"/>
</g>
</svg>
