<?xml version="1.0" encoding="utf-8"?>
<!-- Generator: Adobe Illustrator 16.0.0, SVG Export Plug-In . SVG Version: 6.00 Build 0)  -->
<!DOCTYPE svg PUBLIC "-//W3C//DTD SVG 1.1//EN" "http://www.w3.org/Graphics/SVG/1.1/DTD/svg11.dtd">
<svg version="1.1" id="Layer_1" xmlns="http://www.w3.org/2000/svg" xmlns:xlink="http://www.w3.org/1999/xlink" x="0px" y="0px"
	 width="64px" height="64px" viewBox="0 0 64 64" enable-background="new 0 0 64 64" xml:space="preserve">
<g>
	<defs>
		<rect id="SVGID_1_" width="64" height="64"/>
	</defs>
	<clipPath id="SVGID_2_">
		<use xlink:href="#SVGID_1_"  overflow="visible"/>
	</clipPath>
	<path clip-path="url(#SVGID_2_)" fill="#FFFFFF" d="M38,45h12c1.105,0,2-0.895,2-2s-0.895-2-2-2H38c-1.105,0-2,0.895-2,2
		S36.895,45,38,45"/>
	<path clip-path="url(#SVGID_2_)" fill="#FFFFFF" d="M14,24h4v4c0,1.105,0.895,2,2,2s2-0.895,2-2v-4h4c1.105,0,2-0.895,2-2
		s-0.895-2-2-2h-4v-4c0-1.105-0.895-2-2-2s-2,0.895-2,2v4h-4c-1.105,0-2,0.895-2,2S12.895,24,14,24"/>
	<path clip-path="url(#SVGID_2_)" fill="#FFFFFF" d="M26.829,37.172c-0.781-0.781-2.047-0.781-2.828,0l-4,4l-4-4
		c-0.781-0.781-2.048-0.781-2.829,0c-0.781,0.78-0.781,2.047,0,2.828l4,4l-4,4c-0.781,0.78-0.781,2.048,0,2.828
		c0.781,0.781,2.048,0.781,2.829,0l4-4l4,4c0.781,0.781,2.047,0.781,2.828,0c0.781-0.78,0.781-2.048,0-2.828l-4-4l4-4
		C27.609,39.219,27.609,37.952,26.829,37.172"/>
	<path clip-path="url(#SVGID_2_)" fill="#FFFFFF" d="M38,24h12c1.105,0,2-0.895,2-2s-0.895-2-2-2H38c-1.105,0-2,0.895-2,2
		S36.895,24,38,24"/>
	<path clip-path="url(#SVGID_2_)" fill="#FFFFFF" d="M42,37c0,1.105,0.895,2,2,2s2-0.895,2-2s-0.895-2-2-2S42,35.895,42,37"/>
	<path clip-path="url(#SVGID_2_)" fill="#FFFFFF" d="M44,47c-1.105,0-2,0.895-2,2s0.895,2,2,2s2-0.895,2-2S45.105,47,44,47"/>
	<path clip-path="url(#SVGID_2_)" fill="#4F5D73" d="M31.833,64c17.673,0,32-14.327,32-32s-14.327-32-32-32s-32,14.327-32,32
		S14.16,64,31.833,64 M44,51c-1.105,0-2-0.895-2-2s0.895-2,2-2s2,0.895,2,2S45.105,51,44,51 M38,20h12c1.105,0,2,0.895,2,2
		s-0.895,2-2,2H38c-1.105,0-2-0.895-2-2S36.895,20,38,20 M46,37c0,1.105-0.895,2-2,2s-2-0.895-2-2s0.895-2,2-2S46,35.895,46,37
		 M38,41h12c1.105,0,2,0.895,2,2s-0.895,2-2,2H38c-1.105,0-2-0.895-2-2S36.895,41,38,41 M26.828,48c0.781,0.781,0.781,2.047,0,2.828
		c-0.781,0.781-2.047,0.781-2.828,0l-4-4l-4,4c-0.781,0.781-2.047,0.781-2.828,0c-0.781-0.781-0.781-2.047,0-2.828l4-4l-4-4
		c-0.781-0.781-0.781-2.047,0-2.828c0.781-0.781,2.047-0.781,2.828,0l4,4l4-4c0.781-0.781,2.047-0.781,2.828,0
		c0.781,0.781,0.781,2.047,0,2.828l-4,4L26.828,48z M14,20h4v-4c0-1.105,0.895-2,2-2s2,0.895,2,2v4h4c1.105,0,2,0.895,2,2
		s-0.895,2-2,2h-4v4c0,1.105-0.895,2-2,2s-2-0.895-2-2v-4h-4c-1.105,0-2-0.895-2-2S12.895,20,14,20"/>
</g>
</svg>
