<?xml version="1.0" encoding="utf-8"?>
<!-- Generator: Adobe Illustrator 16.0.0, SVG Export Plug-In . SVG Version: 6.00 Build 0)  -->
<!DOCTYPE svg PUBLIC "-//W3C//DTD SVG 1.1//EN" "http://www.w3.org/Graphics/SVG/1.1/DTD/svg11.dtd">
<svg version="1.1" id="Layer_1" xmlns="http://www.w3.org/2000/svg" xmlns:xlink="http://www.w3.org/1999/xlink" x="0px" y="0px"
	 width="64px" height="64px" viewBox="0 0 64 64" enable-background="new 0 0 64 64" xml:space="preserve">
<rect x="22" y="24" fill="#FFFFFF" width="20" height="2"/>
<g>
	<defs>
		<rect id="SVGID_1_" width="64" height="64"/>
	</defs>
	<clipPath id="SVGID_2_">
		<use xlink:href="#SVGID_1_"  overflow="visible"/>
	</clipPath>
	<path clip-path="url(#SVGID_2_)" fill="#FFFFFF" d="M48,12h-8v-2h-3H27h-3v2h-8c-2.209,0-4,1.791-4,4v5.5V48c0,2.209,1.791,4,4,4
		h32c2.209,0,4-1.791,4-4V21.5V16C52,13.791,50.209,12,48,12 M48,48H16V16h8.184c0.413,1.163,1.512,2,2.816,2h10
		c1.304,0,2.403-0.837,2.816-2H48V48z"/>
	<rect x="22" y="40" clip-path="url(#SVGID_2_)" fill="#FFFFFF" width="20" height="2"/>
	<rect x="22" y="28" clip-path="url(#SVGID_2_)" fill="#FFFFFF" width="20" height="2"/>
	<rect x="22" y="36" clip-path="url(#SVGID_2_)" fill="#FFFFFF" width="20" height="2"/>
	<rect x="22" y="32" clip-path="url(#SVGID_2_)" fill="#FFFFFF" width="20" height="2"/>
	<path clip-path="url(#SVGID_2_)" fill="#4F5D73" d="M32,0C14.327,0,0,14.327,0,32s14.327,32,32,32s32-14.327,32-32S49.673,0,32,0
		 M52,21.5V48c0,2.209-1.791,4-4,4H16c-2.209,0-4-1.791-4-4V21.5V16c0-2.209,1.791-4,4-4h8v-2h3h10h3v2h8c2.209,0,4,1.791,4,4V21.5z
		"/>
	<path clip-path="url(#SVGID_2_)" fill="#4F5D73" d="M37,18H27c-1.304,0-2.403-0.837-2.816-2H16v32h32V16h-8.184
		C39.403,17.163,38.304,18,37,18 M42,42H22v-2h20V42z M42,38H22v-2h20V38z M42,34H22v-2h20V34z M42,30H22v-2h20V30z M42,26H22v-2h20
		V26z"/>
</g>
</svg>
