<?xml version="1.0" encoding="utf-8"?>
<!-- Generator: Adobe Illustrator 16.0.0, SVG Export Plug-In . SVG Version: 6.00 Build 0)  -->
<!DOCTYPE svg PUBLIC "-//W3C//DTD SVG 1.1//EN" "http://www.w3.org/Graphics/SVG/1.1/DTD/svg11.dtd">
<svg version="1.1" id="Layer_1" xmlns="http://www.w3.org/2000/svg" xmlns:xlink="http://www.w3.org/1999/xlink" x="0px" y="0px"
	 width="64px" height="64px" viewBox="0 0 64 64" enable-background="new 0 0 64 64" xml:space="preserve">
<g>
	<defs>
		<rect id="SVGID_1_" width="64" height="64"/>
	</defs>
	<clipPath id="SVGID_2_">
		<use xlink:href="#SVGID_1_"  overflow="visible"/>
	</clipPath>
	<path clip-path="url(#SVGID_2_)" fill="#FFFFFF" d="M48,12H16c-2.209,0-4,1.791-4,4v22c0,2.209,1.791,4,4,4h11c0,0,1,6-3,6h-0.528
		H22c-1.105,0-2,0.895-2,2s0.895,2,2,2h20c1.105,0,2-0.895,2-2s-0.895-2-2-2h-2c-4,0-3-6-3-6h11c2.209,0,4-1.791,4-4V16
		C52,13.791,50.209,12,48,12 M49,38c0,0.551-0.449,1-1,1H16c-0.551,0-1-0.449-1-1V16c0-0.551,0.449-1,1-1h32c0.551,0,1,0.449,1,1V38
		z"/>
	<path clip-path="url(#SVGID_2_)" fill="#4F5D73" d="M32,0C14.327,0,0,14.327,0,32s14.327,32,32,32s32-14.327,32-32S49.673,0,32,0
		 M52,38c0,2.209-1.791,4-4,4H37c0,0-1,6,3,6h2c1.105,0,2,0.895,2,2s-0.895,2-2,2H22c-1.105,0-2-0.895-2-2s0.895-2,2-2h1.472H24
		c4,0,3-6,3-6H16c-2.209,0-4-1.791-4-4V16c0-2.209,1.791-4,4-4h32c2.209,0,4,1.791,4,4V38z"/>
	<path clip-path="url(#SVGID_2_)" fill="#4F5D73" d="M48,15H16c-0.551,0-1,0.449-1,1v22c0,0.551,0.449,1,1,1h32c0.551,0,1-0.449,1-1
		V16C49,15.449,48.551,15,48,15"/>
</g>
</svg>
