<?xml version="1.0" encoding="utf-8"?>
<!-- Generator: Adobe Illustrator 16.0.0, SVG Export Plug-In . SVG Version: 6.00 Build 0)  -->
<!DOCTYPE svg PUBLIC "-//W3C//DTD SVG 1.1//EN" "http://www.w3.org/Graphics/SVG/1.1/DTD/svg11.dtd">
<svg version="1.1" id="Layer_1" xmlns="http://www.w3.org/2000/svg" xmlns:xlink="http://www.w3.org/1999/xlink" x="0px" y="0px"
	 width="100px" height="100px" viewBox="0 0 100 100" enable-background="new 0 0 100 100" xml:space="preserve">
<path fill="#2B414D" d="M29.42,3.456c0.275-0.266,0.354-0.85,0.785-1.097c-0.153-0.324,0.054-0.754,0.472-0.78
	c0.147-0.013,0.451-0.118,0.486,0.205c0.205,1.739,0.267,3.624,0.395,5.502c0.025,0.351,0.462,0.29,0.557,0.553
	c0.119,0.318-0.166,0.617-0.33,0.884c-0.083,0.126,0.049,0.711,0.061,0.862c1.119-0.333,2.241-0.787,3.375-0.998
	c0.358-0.066,0.711,0.621,0.458,0.951c-0.598,0.778-1.313,0.765-2.02,1.02l-1.6,0.562c0.253,1.624,0.466,3.367,0.716,5.032
	c0.677,4.565,2.631,8.977,4.416,13.444c3.454,10.488,13.746,23.691,26.891,29.295c0.518,0.219,1.076,0.307,1.697,0.446
	c0.736-3.043,0.938-6.046,1.449-9.005c0.119-0.693,0.668-1.322,1.393-1.156c1.25,1.879,2.369,3.843,3.58,5.731
	c0.658,1.033,1.357,1.729,2.098,2.727c0.123,0.165,0.34,0.455,0.477,0.629l1.613,1.978c0.053-1.457,0.273-3.017,0.391-4.25
	c0.023-0.238,0.424-0.193,0.414-0.015c-0.068,1.576-0.076,3.215-0.258,4.864c0.365,0.509,0.893,0.877,1.281,1.483
	c0.232-0.729,0.133-1.64,0.248-2.35c0.018-0.154,0.363-0.234,0.389-0.015c0.119,0.923-0.098,1.947-0.008,2.964
	c0.035,0.385,0.461,0.535,0.68,0.812c0.217,0.263,0.164-0.424,0.164-0.521c0.018-0.462-0.088-0.87,0.152-1.098
	c0.189-0.176,0.348,0.093,0.35,0.294l-0.035,2.083c0,0.275,0.482,0.701,0.754,0.679c-0.037-0.42-0.064-0.918,0.211-1.138
	c0.211-0.171,0.443,0.167,0.412,0.371c-0.074,0.52-0.018,1.037-0.002,1.54c0.004,0.32,0.373,0.444,0.615,0.665
	c0.15-0.209-0.059-0.548,0.248-0.694c0.264-0.128,0.361,0.229,0.359,0.387c0.004,0.727,0.264,1.479,1.002,2.107
	c1.24,1.056,2.203,2.337,3.516,3.453c0.113,0.103,0.633-0.114,0.66,0.06c0.082,0.689,0.807,1.335,1.482,1.894
	c3.221,2.652,6.172,5.501,9.52,7.67c0.223,0.144-0.182,0.694-0.273,1.203c-0.893,0.211-1.951,0.186-2.934,0.22
	c-5.902,0.188-11.848,0.388-17.613,1.935l-14.973,4.669l-10.426,4.765c-0.225-0.231-0.467-0.535-0.482-0.761
	c-0.117-1.873,0.883-3.755,1.164-5.623c0.234-1.57,0.65-3.214,1.484-4.849c-0.252,0.001-0.539,0.141-0.631-0.038
	c-0.111-0.235-0.061-0.469-0.014-0.666l-9.351-4.442c-1.624-1.271-3.425-2.479-4.932-3.891c-5.58-5.221-10.994-10.329-15.121-15.742
	C15.556,47.516,10.214,36.413,7.225,25.006c-0.425-1.623-0.958-3.26-1.197-4.985l-4.252,0.898c-0.237-0.28-0.564-0.021-0.682-0.299
	c-0.16-0.381-0.017-0.991,0.385-1.126c1.167-0.393,2.447-0.722,3.693-1.214c-0.01-0.386,0.463-0.509,0.456-0.699
	c-0.062-1.071-0.339-2.115-0.356-3.171c0-0.286,0.268-0.396,0.462-0.494c0.283-0.148,0.592-0.026,0.986-0.099
	c0.359,0.884,0.463,1.871,0.92,2.765c0.093,0.192,0.497,0,0.654-0.225c0.322-0.429,1.014-0.325,1.194-0.307
	c6.33-1.778,12.378-4.575,18.337-7.816c-0.133-0.334,0.045-0.751,0.403-0.851c0.285-0.072,0.53,0.204,0.77,0.438
	c-0.421-2.397-0.778-4.74-0.726-7.148c0.005-0.274,0.159-0.67,0.462-0.621c0.16,0.028,0.468-0.208,0.5,0.143
	C29.324,1.253,29.403,2.335,29.42,3.456z M15.238,33.458c0.034,0.239,0.157,0.475,0.257,0.711c2.198,5.279,5.51,10.481,9.054,15.664
	c4.444,6.503,10.762,12.848,17.774,19.027c3.985,3.517,8.37,7.093,12.503,9.099c-0.598-5.488-0.855-11.021-1.432-16.438
	c-0.018-0.194-0.361-0.245-0.412-0.018c-0.916,4.069-1.635,8.229-1.951,12.324c-0.019,0.209-0.427,0.233-0.434,0.107
	c-0.213-4.62-0.706-9.22-1.381-13.814c-0.042-0.29-0.278-0.091-0.311,0.034c-0.856,3.394-1.521,6.825-2.008,10.201
	c-0.029,0.195-0.375,0.215-0.385-0.129c-0.095-2.762-0.076-5.684-0.473-8.569l-0.485-2.488c-0.074-0.401-0.467,0.087-0.54,0.232
	c-0.703,1.483-0.864,3.004-1.342,4.498c-0.055,0.187-0.363,0.213-0.365-0.013c-0.008-1.734,0.118-3.541-0.472-5.243
	c-0.221-0.645-1.047-1.189-1.944-1.756c2.614,0.655,2.9,3.116,2.633,4.741c-0.039,0.209,0.158,0.174,0.289-0.005
	c0.532-0.717,0.348-1.396,0.708-2.193c0.19-0.417,0.443-0.983,0.953-0.891c0.342,0.063,0.438,0.475,0.5,0.771
	c0.553,2.673,0.943,5.352,0.871,8.081c0.465-2.603,1.111-5.28,1.865-7.904c0.059-0.201,0.36-0.144,0.544-0.107
	c0.2,0.036,0.292,0.287,0.325,0.473c0.556,3.275,0.846,6.552,1.219,9.671c0.034,0.293,0.047,0.648,0.104,0.317
	c0.36-2.157,0.687-4.349,1.168-6.563c0.379-0.062,0.127-0.57,0.168-0.723c0.184-0.706,0.199-1.365,0.59-1.922
	c0.135-0.201,0.385-0.281,0.605-0.182c0.174,0.078,0.318,0.363,0.338,0.6l1.5,15.937c0.605-4.056,1.199-8.094,2.037-12.28
	c0.031-0.152,0.326-0.796,0.434-0.524c-0.111-0.547-0.203-1.047,0.055-1.635c-4.16-2.429-8.469-6.488-12.176-9.904
	c-5.441-6.189-8.788-12.704-12.31-19.105c-3.159-6.683-4.798-13.544-5.426-20.606c-5.817,1.904-11.526,4.056-17.256,5.82
	c-0.448,0.138-0.314,0.538-0.196,0.778c0.455-0.194,0.73,0.339,0.915,0.722c0.111,0.246,0.243,0.708,0.688,0.487
	c0.61,1.358,1.026,2.845,1.669,4.188l-0.876-3.361c-0.04-0.13,0.215-0.415,0.369-0.197c0.423,0.577,0.696,1.283,1.083,1.928
	c0.188,0.32,0.417,0.8,0.451,1.026c0.193,1.257,1.06,2.689,1.514,3.979c1.473,4.126,3.107,8.226,5.765,12.193
	c-1.58-4.312-3.65-8.521-5.074-12.815c-0.46-1.372-0.967-2.859-1.241-4.309c0.536-0.02,0.792,0.336,0.896,0.58l2.975,7.109
	c0.938,2.359,1.827,4.734,3.671,7.124c0.029,0.04,0.26,0.019,0.226-0.177c-0.663-3.523-2.104-6.97-3.143-10.455
	c-0.065-0.206,0.191-0.552,0.321-0.37c0.572,0.787,1.037,1.639,1.368,2.49c0.403,1.021,0.847,2.181,1.648,3.307
	c0.008-0.69-0.036-1.356-0.119-1.715c-0.094-0.407-0.249-0.867-0.306-1.312c-0.046-0.382-0.242-0.899,0.04-1.108
	c0.298-0.213,0.551,0.033,0.741,0.162c0.756,0.519,1.026,1.284,1.785,1.823c0.241,0.172,0.665,0.181,0.795-0.063
	c0.458-0.887,0.47-1.872,0.692-2.941c0.191,0.753,0.107,1.35-0.009,2.017c0.068,0.561-0.354,1.558-1.321,1.641
	c-0.753-0.384-1.392-1.326-2.144-2.137c-0.032-0.029-0.306-0.145-0.248,0.11c0.25,1.175,0.458,2.375,0.45,3.312
	c-0.003,0.52-0.674,0.543-0.773,0.339l-1.823-3.582c0.081-0.31-0.076-0.64-0.336-0.849l0.336,0.849
	c-0.008,0.031-0.053,0.108-0.047,0.153c0.054,0.205,0.348,0.878,0.42,1.112c0.753,2.491,1.897,4.956,2.062,7.192
	c0.049,0.709-0.633,0.737-0.907,0.538c-0.481-0.359-0.796-0.91-1.077-1.365c-2.326-3.843-3.364-7.819-5.063-11.711
	c-0.067-0.088,0.19-0.454-0.145-0.381c-0.07-0.103-0.04-0.414-0.225-0.288c0.05,0.258,0.142,0.506,0.37,0.669
	c-0.104,0.195-0.077,0.373-0.03,0.53c1.451,4.885,3.809,9.629,5.714,14.493c0.083,0.209,0.11,0.555-0.184,0.658
	c-0.168,0.059-0.461,0.129-0.611-0.092c-3.203-4.729-4.823-9.636-6.659-14.536c-0.074-0.008-0.14,0.276-0.282,0.229
	c1.655,4.818,3.965,9.527,6.05,14.342c0.308,0.706,0.617,1.344,0.556,2.072c-0.02,0.234-0.345,0.177-0.521,0.134
	c-0.163-0.044-0.331-0.195-0.431-0.368c-1.521-2.529-2.825-5.208-3.966-7.807C16.203,34.542,15.97,33.903,15.238,33.458z
	 M62.617,67.923c-0.08,0.034-0.146,0.162-0.146,0.182c-0.955,5.575-1.799,11.141-2.398,16.674c-0.021,0.263-0.438,0.381-0.473,0.066
	c-0.84-6.938-1.133-13.834-1.223-20.836c-0.004-0.317-0.111-1.291-0.195-0.851c-1,5.035-1.848,10.086-2.48,15.191
	c0.441,0.408,1.076,0.557,1.615,0.996c0.168-0.22,0.498-0.42,0.797-0.264c0.217,0.113,0.34,0.45,0.354,0.703
	c0.039,0.703,0.08,1.405-0.051,2.169c0.148,0.368-0.023,0.991-0.572,1.204c-0.676,1.905-1.051,3.706-1.404,5.687
	c2.174-1.466,4.318-2.343,6.486-3.438C62.307,79.643,62.445,73.761,62.617,67.923z M70.002,59.564
	c-0.029,0.171-0.387,0.641-0.453,0.811c-0.635,1.648-1.061,3.17-2.012,4.853c-0.092,0.15-0.35,0.2-0.594,0.18
	c-0.027,0.229,0.018,0.46-0.002,0.687c-0.514,5.893-0.238,11.719,0.295,17.515c0.232-0.089,0.793-0.049,0.822-0.304l2.057-20.004
	c0.125-1.232,0.354-2.562,0.254-3.772C70.352,59.361,70.039,59.333,70.002,59.564z M70.982,60.438
	c-0.846,7.286-0.512,14.47,0.158,21.728c0.006,0.096,0.369,0.128,0.389-0.097c0.494-5.991,1.166-12.036,2.016-18.104L70.982,60.438z
	 M58.832,63.332c-0.199,6.52,0.615,13.005,0.855,19.455c0.889-5.919,1.709-11.852,2.742-17.821
	c-0.996-0.531-2.006-0.936-3.039-1.517C59.244,63.362,58.844,62.933,58.832,63.332z M63.27,65.31
	c-0.633,6.403-0.377,12.59-0.189,18.747c0.002,0.163,0.082,0.447,0.178,0.606c0.051,0.083,0.098,0.499,0.156,0.142
	c1.041-6.186,1.889-12.387,2.756-18.56C65.256,66.103,64.148,65.542,63.27,65.31z M66.131,70.651
	c-0.807,4.741-1.377,9.491-2.104,14.253l2.809-1.06c-0.572-4.266-0.617-8.561-0.553-12.921
	C66.283,70.931,66.199,70.728,66.131,70.651z M38.53,36.81c0.675,1.625,1.171,3.181,1.972,4.801
	c3.551,5.313,8.983,11.181,15.419,15.307c2.322,1.493,4.82,2.564,7.25,3.742c-1.65-0.768-3.43-1.993-5.207-2.997
	c-6.395-3.626-12.611-9.733-16.048-15.145L38.53,36.81z M74.65,78.562c0.426-3.971,0.842-7.971,1.168-11.931l-1.668-1.774
	c-0.232,4.55-0.031,9.083,0.367,13.627C74.514,78.458,74.531,78.524,74.65,78.562z M73.551,68.604
	c-0.629,4.461-1.039,8.953-1.443,13.401c0.688-0.329,1.475-0.568,2.318-0.824C73.695,77.059,73.652,72.785,73.551,68.604z
	 M69.957,70.405l-1.344,12.773c0.607-0.185,1.289-0.309,1.971-0.653L69.957,70.405z M76.215,69.433
	c-0.48,3.844-0.859,7.707-1.172,11.51c0.625-0.266,1.545-0.424,2.055-0.733c-0.127-1.013-0.305-2.066-0.369-2.986
	C76.564,74.638,76.473,72,76.215,69.433z M71.869,84.191l0.002,0.85c6.23-2.408,12.592-3.473,19.021-3.713
	c-0.168-0.201-0.299-0.464-0.457-0.438c-1.775,0.305-3.602,0.39-5.414,0.507c-0.982,0.071-1.959,0.333-2.936,0.492
	C78.65,82.457,75.234,83.137,71.869,84.191z M77.357,78.455l-0.016-0.157c0.066-0.112,0.15-0.266,0.006-0.388
	c0.221-3.047,0.586-6.124,0.588-9.058c-0.445-0.355-1.121-1.149-1.293-1.219c0.141,3.502,0.393,6.907,0.705,10.276
	c-0.027,0.107-0.117,0.266-0.006,0.388L77.357,78.455z M78.406,71.7c-0.227,2.73-0.43,5.502-0.525,8.282
	c0.5-0.323,1.252-0.165,1.221-0.404C78.766,76.828,78.641,74.255,78.406,71.7z M14.129,26.473c0.042,0.054,0.009,0.175,0.02,0.205
	c1.038,3.874,3.022,7.638,4.719,11.428c0.385,1.488,0.764,3.066,2.032,4.514c-0.065-0.505-0.275-0.916-0.431-1.294
	c-2.042-4.95-4.494-9.832-6.164-14.848C14.266,26.36,13.874,26.147,14.129,26.473z M39.868,71.664
	c0.011,0.011,0.027,0.067,0.013,0.055c1.453,1.417,3.311,2.896,4.906,3.995c1.134,0.78,2.354,1.414,3.482,1.873
	c-3.258-2.33-6.602-4.932-9.917-7.269L39.868,71.664z M82.695,73.979c-0.023,0.085-0.057,0.296-0.064,0.22l0.273,4.436l0.941-0.126
	c-0.16-1.443-0.504-2.859-0.621-4.331c-0.016-0.14-0.305-0.306-0.455-0.466C82.568,73.512,82.715,73.898,82.695,73.979z
	 M81.318,72.694c-0.113,2.106-0.094,4.235,0.021,6.327c0.18-0.036,0.391-0.17,0.727-0.138
	C81.848,76.818,81.531,74.752,81.318,72.694z M68.355,85.367c-0.189,0.072-0.158,0.446,0.004,0.641
	c0.859-0.155,1.707-0.555,2.596-0.719c0.219-0.035,0.127-0.793-0.037-0.763C70.021,84.694,69.125,85.073,68.355,85.367z
	 M68.586,52.479l-0.348,3.906c0.25-0.742,0.77-1.689,1.531-2.297c-0.271-0.354-0.475-0.84-0.803-1.171
	C68.82,52.772,68.604,52.212,68.586,52.479z M79.904,73.684c-0.109,1.812-0.094,3.646-0.057,5.472
	c0.004,0.247,0.619,0.086,0.605-0.025L79.904,73.684z M91.502,80.737l-0.16,0.572l3.969-0.403c-0.26-0.062-0.453-0.497-0.645-0.479
	L91.502,80.737z M84.504,75.418c0.047,1,0.047,2.019,0.188,2.965c0.293-0.044,0.811,0.045,0.768-0.205l-0.408-2.336
	C85.033,75.682,84.67,75.47,84.504,75.418z M79.186,74.692c0.057-0.049,0.148-0.167,0.152-0.251l0.074-3.184
	c0.033-0.469,0.025-1.085-0.621-1.346L79.186,74.692z M62.697,87.92c1.508-0.59,2.996-1.068,4.49-1.578
	c0.264-0.093,0.131-0.45,0.029-0.626C65.674,86.382,64.186,87.021,62.697,87.92z M69.84,56.586c-0.252,0.394-0.512,0.81-0.596,1.346
	c-0.295,0.008-0.113,0.423,0.096,0.195c0.422-0.463,0.795-1.093,1.336-1.147c0.258-0.025,0-1.039-0.311-1.05
	C70.057,55.924,70.01,56.32,69.84,56.586z M90.342,77.567c-0.105,0.315,0.254,0.356,0.4,0.46c0.33,0.245,0.086,0.847,0.447,0.902
	c0.289,0.042,0.598-0.123,0.834-0.113C91.494,78.365,90.91,77.845,90.342,77.567z M80.633,74.719l-0.029-0.31l-0.045-0.153
	c0.156-0.591,0.123-1.2,0.109-1.787c-0.004-0.349,0.178-0.859-0.359-1.004l0.25,2.791l0.045,0.153L80.633,74.719z M54.109,90.684
	c-0.043,0.432-0.256,0.724-0.205,0.965c0.062,0.282,0.498,0.176,0.676-0.006c0.344-0.354-0.141-0.604-0.168-0.979
	C54.389,90.413,54.117,90.613,54.109,90.684z M63.807,61.016c0.41,0.142,0.756,0.463,1.189,0.581
	c0.254,0.069,0.064-0.304,0.111-0.432c-0.32-0.147-0.756-0.163-1.119-0.391C63.904,60.724,63.475,60.898,63.807,61.016z
	 M86.303,77.162c0.008,0.171,0.029,0.692,0.086,0.834c0.072,0.186,0.293,0.212,0.5,0.209c-0.07-0.296-0.02-0.749-0.342-1.161
	C86.533,77.033,86.279,76.87,86.303,77.162z M13.816,23.617c0.09,0.695,0.375,1.397,0.606,2.085c0.148,0.442,0.15-0.178,0.138-0.249
	c-0.111-0.525-0.364-1.119-0.595-1.656C13.954,23.756,13.863,23.649,13.816,23.617z M87.809,75.649l-0.035,0.471
	c0.311,0.1,0.594,0.354,0.764,0.48C88.602,76.112,88.168,75.686,87.809,75.649z M86.799,74.748
	c-0.066,0.384,0.207,0.606,0.371,0.803c-0.002-0.021,0.137-0.402,0.107-0.441C87.145,74.961,86.93,74.775,86.799,74.748z
	 M85.129,73.636c0.055,0.257,0.379,0.37,0.568,0.552c0.031-0.118-0.023-0.283-0.016-0.276
	C85.551,73.683,84.986,72.988,85.129,73.636z M71.246,57.821c0.205,0.293,0.314,0.597,0.617,0.839
	c-0.061-0.448-0.545-0.646-0.5-1.068C71.127,57.481,71.227,57.797,71.246,57.821z M13.725,37.492l-0.09-0.236
	c-0.015-0.21-0.142-0.402-0.216-0.596l-0.133-0.189l0.133,0.189c-0.183,0.231,0.069,0.451,0.216,0.596L13.725,37.492z
	 M89.059,76.512c0.006,0.107,0.021,0.396,0.037,0.427c0.191,0.372,0.176-0.013,0.207-0.103
	C89.375,76.639,89.143,76.516,89.059,76.512z M83.434,72.012c0.191,0.229,0.326,0.465,0.553,0.625
	C84.143,72.284,83.609,72.029,83.434,72.012z M82.061,74.045l-0.012-0.153l-0.016-0.158l-0.01-0.156l-0.016-0.151l-0.02-0.166
	c0-0.119,0.086-0.32-0.115-0.367c-0.064,0.124,0.027,0.273,0.115,0.367l0.035,0.317l0.01,0.156l0.016,0.158L82.061,74.045z"/>
</svg>
