<svg version="1.1"
	 xmlns:dc="http://purl.org/dc/elements/1.1/" xmlns:cc="http://web.resource.org/cc/" xmlns:rdf="http://www.w3.org/1999/02/22-rdf-syntax-ns#" xmlns:svg="http://www.w3.org/2000/svg" xmlns:inkscape="http://www.inkscape.org/namespaces/inkscape" inkscape:version="0.43"
	 xmlns="http://www.w3.org/2000/svg" xmlns:xlink="http://www.w3.org/1999/xlink" x="0px" y="0px" width="111.162px" height="122px"
	 viewBox="0 -3.49 111.162 122" enable-background="new 0 -3.49 111.162 122" xml:space="preserve">
<g id="g2303">

		<linearGradient id="path1948_1_" gradientUnits="userSpaceOnUse" x1="189.1328" y1="-398.9592" x2="298.1487" y2="-492.7527" gradientTransform="matrix(0.5625 0 0 -0.568 -109.1222 -221.7532)">
		<stop  offset="0" style="stop-color:#5A9FD4"/>
		<stop  offset="1" style="stop-color:#306998"/>
	</linearGradient>
	<path id="path1948" fill="url(#path1948_1_)" d="M54.919,1.646c-4.584,0.021-8.961,0.412-12.812,1.094
		C30.76,4.744,28.7,8.94,28.7,16.677v10.219h26.812v3.406H28.7H18.638c-7.792,0-14.616,4.684-16.75,13.594
		c-2.462,10.213-2.571,16.586,0,27.25c1.906,7.938,6.458,13.594,14.25,13.594h9.219V72.49c0-8.85,7.657-16.656,16.75-16.656h26.781
		c7.455,0,13.406-6.138,13.406-13.625V16.677c0-7.266-6.13-12.725-13.406-13.938C64.282,1.973,59.502,1.624,54.919,1.646z
		 M40.419,9.865c2.77,0,5.031,2.299,5.031,5.125c0,2.816-2.262,5.094-5.031,5.094c-2.78,0-5.031-2.277-5.031-5.094
		C35.388,12.163,37.639,9.865,40.419,9.865z"/>

		<linearGradient id="path1950_1_" gradientUnits="userSpaceOnUse" x1="340.2949" y1="-549.5232" x2="301.3653" y2="-494.4444" gradientTransform="matrix(0.5625 0 0 -0.568 -109.1222 -221.7532)">
		<stop  offset="0" style="stop-color:#FFD43B"/>
		<stop  offset="1" style="stop-color:#FFE873"/>
	</linearGradient>
	<path id="path1950" fill="url(#path1950_1_)" d="M85.638,30.302v11.906c0,9.231-7.826,17-16.75,17H42.106
		c-7.336,0-13.406,6.278-13.406,13.625v25.531c0,7.267,6.318,11.541,13.406,13.625c8.487,2.496,16.626,2.947,26.781,0
		c6.75-1.954,13.406-5.888,13.406-13.625V88.146H55.513V84.74h26.781H95.7c7.792,0,10.696-5.436,13.406-13.594
		c2.799-8.398,2.68-16.476,0-27.25c-1.926-7.757-5.604-13.594-13.406-13.594H85.638z M70.575,94.958
		c2.779,0,5.031,2.277,5.031,5.094c0,2.826-2.252,5.125-5.031,5.125c-2.77,0-5.031-2.299-5.031-5.125
		C65.544,97.236,67.806,94.958,70.575,94.958z"/>
</g>
</svg>
